<?xml version="1.0" encoding="UTF-8"?>
<svg id="Vrstva_1" xmlns="http://www.w3.org/2000/svg" viewBox="0 0 595.28 841.89">
  <defs>
    <style>
      .cls-1 {
        fill: #fff;
      }
    </style>
  </defs>
  <path d="M42.87,664.71c-.49-.32-.98-.64-1.58-1.03.46-.36.75-.66,1.1-.85,1.3-.68,2.24-1.48,2.28-3.17.02-.74.72-1.48,1.13-2.21.9-1.59,1.82-3.17,2.8-4.87-.18-.21-.48-.56-.9-1.05.73-.78,1.43-1.52,2.22-2.36-.14-.32-.31-.74-.52-1.22,1.28-.98,1.61-2.5,2.19-3.88.57-1.34.69-1.56,1.97-1.13,1.2.4,1.78-.24,2.64-1.06-.53-.18-.89-.3-1.32-.45.02-.42.05-.86.08-1.32-1.5-.16-.82,2.21-2.44,1.77,1.03-2.29,2.05-4.56,3.04-6.77-.48-.7-.89-1.32-1.49-2.19,1.05-.15,1.74-.26,2.53-.37.27-1.68,1.61-2.69,2.61-3.92.81-1,1.74-1.92,2.39-3.01.68-1.13,1.23-2.38,1.58-3.66.58-2.08,2.02-3.4,3.64-4.61.54-.4,1.12-.65,1.12-1.5,0-.29.45-.73.77-.84.92-.29,1.26-.96,1.68-1.74.58-1.09,1.09-2.31,2.35-2.92.34-.16.48-.7.8-.95,1.76-1.38,3.01-3.15,4.29-4.96.65-.93,1.95-1.37,2.85-2.16.86-.77,1.87-1.42,2.12-2.76.13-.69.68-1.42,1.25-1.87,1.46-1.17,2.56-2.48,3.21-4.29.32-.9,1.19-1.67,1.96-2.32,1.8-1.52,3.7-2.94,5.67-4.49-.53-1.01.05-1.89.72-2.61,1.5-1.64,2.58-3.52,3.52-5.49,1.49-3.11,4-5.34,6.54-7.47,5.97-5.01,12.68-8.93,19.39-12.83,2.98-1.73,6.14-3.17,9.14-4.87,4.45-2.51,9.24-3.9,14.2-4.92,2.35-.48,4.67-.65,7.04-.31,2.08.29,2.61-.03,3.63-1.91.64-1.17,1.26-2.35,1.97-3.48.98-1.56,2.25-2.87,3.9-3.73,1.89-.98,3.28-2.45,4.42-4.22.43-.66.9-1.29,1.35-1.94,1.15-1.66,2.28-3.34,4.76-3.37-.47-1.38.18-2.13,1.15-2.78,3.63-2.45,7.42-4.61,11.56-6.08.32-.11.68-.11,1.13-.18.01.94-.56,1.48-1.02,1.93-1.74,1.67-3.62,3.19-5.34,4.89-1.54,1.53-3.03,3.14-4.36,4.85-.91,1.16-.76,1.64.27,2.69.75.77,1.42,1.69,2.66,1.76.2.01.45.2.59.38.89,1.21,1.75,2.45,2.64,3.66.35.49.69,1,1.12,1.42,6.6,6.43,13.29,12.76,19.78,19.29,3.71,3.73,7.23,7.66,10.58,11.72,3.66,4.43,7.02,9.11,10.51,13.67,2.76,3.6,5.45,7.25,8.31,10.77,4.24,5.22,8.61,10.33,12.89,15.51,5.36,6.49,10.66,13.03,16.05,19.5,4.93,5.9,9.85,11.8,15.16,17.39,4.32,4.55,9.1,8.53,14.05,12.32,4.86,3.72,9.99,7.05,15.45,9.85,3.45,1.77,6.87,3.61,10.22,5.55,3.11,1.81,5.56,4.47,8.23,6.84,2.66,2.36,5.07,4.99,7.38,7.7.35.41.98.69,1.53.79,3.1.59,5.82-.44,8.07-2.45,3.56-3.2,6.91-6.64,9.76-10.51,1.79-2.43,3.58-4.89,5.14-7.47,1.21-2,2.08-4.2,3.08-6.32.33-.71.61-1.45.91-2.17.18-.45.5-.91.48-1.35-.14-2.79,1.28-5.12,2.12-7.63.74-2.23,1.48-4.48,2.04-6.76,1.89-7.68,2.95-15.47,2.88-23.4-.04-4.02-.64-7.97-1.67-11.86-.93-3.5-2.62-6.66-4.59-9.66-4.16-6.36-7.54-13.14-10.73-20.02-1.96-4.23-4.03-8.42-6.16-12.57-.8-1.56-1.33-3.07-1.18-4.84.28-3.44.47-6.89.71-10.33.02-.28.16-.56.31-1.05.56.19,1.08.28,1.53.52,6.18,3.25,12.19,6.76,17.98,10.67,7.89,5.32,15.89,10.48,23.85,15.7,7.99,5.24,15.33,11.25,21.92,18.2,2.36,2.49,5.11,4.63,7.78,6.81,5.64,4.6,11.5,8.93,16.96,13.72,3.9,3.43,7.4,7.34,10.9,11.2,3.05,3.36,5.93,6.89,8.77,10.44,5.56,6.95,11.52,13.59,16.43,21.06,3.37,5.14,5.6,10.67,6.86,16.71,1.8,8.62,2.11,17.28,1.88,26.05-.16,6.01-1.04,11.81-2.77,17.53-.28.94-.18,2.03-.07,3.04.18,1.62.69,3.23.72,4.84.04,1.98-.18,3.99-.43,5.96-.25,1.98-.63,3.95-1.01,5.91-.44,2.28.01,4.44.69,6.61.9,2.89,1.68,5.82,2.51,8.73.26.89-.06,1.64-.48,2.41-1.08,1.97-2.15,3.94-3.12,5.96-.49,1.03-.94,2.14-1.1,3.25-.42,3.06-.81,6.14,0,9.2.15.58.32,1.19.63,1.69,1.26,2.08,1.63,4.43,1.99,6.76.3,1.94-.08,3.86-.73,5.72-.79,2.24-1.52,4.49-1.39,6.91h-27.3c.91-2.49,1.11-5.09,1.07-7.69-.07-4.48-.21-8.96-.42-13.43-.1-2.05-.42-4.09-.68-6.14-.09-.66-.28-1.45-1.14-1.38-.87.07-.88.85-.84,1.55.15,2.24.16,4.49.48,6.7.25,1.73-.33,2.9-1.61,3.95-1.52,1.26-1.55,1.65-.58,3.39.15.26.27.55.45.79,1.8,2.34,1.99,4.97,1.53,7.77-.24,1.48-.3,2.99-.45,4.49h-15.29c.17-.7.36-1.4.51-2.11.44-2.12.95-4.24,1.26-6.38.16-1.08-.26-1.4-1.35-1.45-.72-.03-1.46-.05-2.18.04-1.07.14-1.64-.29-2.09-1.26-.94-2.03-2-4-3.04-5.99-.39-.74-.78-1.51-1.99-1.66-.09.6-.23,1.16-.26,1.73-.14,2.35-.31,4.7-.35,7.05-.02,1.27-.57,2.03-1.67,2.53-1.54.69-3.07,1.41-4.61,2.11-1.49.67-1.58,1.16-.41,2.36.33.34.72.64,1.1.94.9.71,1.81,1.4,2.71,2.1h-42.95c-1.22-2.36-2.33-4.78-4.28-7.08-.46.81-.87,1.33-1.06,1.92-.57,1.7-1.05,3.44-1.57,5.16h-117.56c1.33-.36,2.65-.74,3.98-1.09,3.92-1.03,7.12-3.23,9.31-6.55,4.11-6.24,5.1-13.01,2.46-20.11-1.54-4.13-4.14-7.37-8.38-9.04-1.4-.55-2.84-1-4.25-1.52-.35-.13-.68-.35-1.13-.59,1.52-.79,2.9-1.4,4.16-2.2,1.06-.68,2.1-1.47,2.93-2.41.87-.98,1.39-2.27,2.22-3.3.84-1.05-.13-2.46.86-3.42,0,0-.12-.22-.18-.22-.88.06-.52-.66-.62-1.04-.7-2.75-.75-5.64-1.89-8.3-.76-1.78-1.4-3.6-2.07-5.42-.33-.9-.36-2.03-.94-2.71-1.81-2.14-3.89-3.92-6.93-4.21-1.39-.13-2.74-.74-4-1.1-.47-.72.1-1.81-1.05-2.02-.15.4-.29.74-.33.86-.48-.33-.91-.87-1.36-.88-.75-.02-1.46.49-1.52,1.29-.07,1.07.01,2.17.18,3.23.16.97.82,1.05,1.6.64.15-.97.29-1.87.43-2.78.7,1.28.32,2.85,1.73,3.71.07.04.09.23.07.34-.19,1.23.62,1.66,1.54,2.11,2.07,1.02,3.86,2.47,5.1,4.4,1.01,1.57,1.37,3.45,1.59,5.33.44,3.79.02,7.44-2.46,10.46-1.61,1.95-3.38,3.94-6.39,4-.19,1.71-.38,3.43-.53,4.81.99.84,1.75,1.41,2.42,2.07,1.68,1.66,3.22,3.47,5.01,4.99,1.48,1.26,2.42,2.82,3.34,4.45.9,1.58.91,3.32,1.13,5.07.55,4.21-.62,7.9-3.02,11.26-.59.83-1.4,1.83-2.29,2.07-1.91.51-3.39,2.17-5.52,1.99-1.14,1.04-2.41.48-3.51.09-1.9-.68-4.06-.53-5.74-2.03-.87-.77-2.41-.39-2.7.41-.72,1.97-1.34,3.98-2.05,6.11,1.68.2,3.1.37,4.52.55,1.73.22,3.45.45,5.18.68h-77.89c.02-.91-.02-1.82.06-2.73.24-2.85-.57-5.38-2.29-7.64-4.07-5.34-8.18-10.64-12.21-16.01-1.06-1.41-2.4-1.93-4.05-1.93-.42,0-.85.03-1.27.05-2.02.05-4.05.1-6.07.15-.11,0-.24-.06-.32-.13-.9-.77-1.97-.48-2.97-.44-.78.03-1.48,0-2.26-.19-1.01-.24-2.32-.71-3.01.75-.76-.84-.75-.85-1.92-1.02-1.2-.17-2.4-.35-3.6-.44-2.82-.21-5.64-.33-8.45-.55-2.59-.2-5.18-.44-7.77-.71-1.3-.14-2.41.32-3.4,1.04-2.29,1.66-4.54,3.38-6.78,5.11-4.72,3.64-9.39,7.33-14.15,10.92-2,1.51-2.54,3.57-2.72,5.85-.11,1.38-.14,2.76-.24,4.14-.08,1.26-.2,2.52-.3,3.77h-18.93c.11-1.08.26-2.15.31-3.24.17-3.56.36-7.13.43-10.7.03-1.43-.14-2.84-1.29-3.99-1.4-1.41-2.66-2.96-4-4.44-1.33-1.48-2.73-2.9-4.01-4.41-1.3-1.54-2.14-3.47-3.98-4.55-.18-.11-.24-.41-.37-.6-.71-1.04-1.44-2.06-2.12-3.12-1.02-1.58-2.39-2.32-4.29-2.04-.41.06-.84-.06-1.27-.08-2.23-.1-4.46-.33-6.68-.24-1.51.06-2.98.19-4.52.02-2.85-.31-5.74-.33-8.61-.47,0-9.58,0-19.17,0-28.75.85-.72.85-.79,0-1.46v-1.09c.6-.23,1.52.03,1.57-1.06.05-1.04-.42-1.73-1.57-2.22,0-.12,0-.24,0-.36.51-.09,1.02-.17,1.52-.26.02-.13.04-.25.05-.38-.53-.15-1.05-.3-1.58-.45,0-1.46,0-2.91,0-4.37.15.09.43.18.44.27.04,1.13.76,1.87,1.49,2.78.99-1.61.33-3.42,1.18-4.96.82-1.48,1.19-3.21,1.7-4.69-.47-.7-.83-1.24-1.19-1.78-.07-.81-.13-1.61-.19-2.32.51-.55.99-1.06,1.41-1.52-.49-1.15-1.25-.92-2.12-.7.4-.75.82-1.41,1.41-1.79.22-.15.86.33,1.34.54.32-.3.71-.66,1.17-1.09-.66-.66-1.26-1.28-1.86-1.89,0,0-.05.05-.05.05,1.56-.28,1.95-1.66,2.49-2.64.84-.22,1.51-.4,2.18-.57-.12-.54-.2-.89-.31-1.36.6.29,1.01.48,1.63.77-.07-1.33-.13-2.44-.2-3.65-4.07.65-6.7,3.11-8.95,6.25-.49.03-1.03.06-1.57.09,0-.85,0-1.7,0-2.55,1.31-.33,2.35-.93,3.34-1.96,1.2-1.25,2.4-2.55,4.11-3.36,1.61-.77,2.89-2.22,4.34-3.34.9-.69,1.77-1.52,2.8-1.91,1.64-.61,2.47-2.02,3.81-3.06-.44-.29-.78-.51-.95-.63-.69.23-1.24.41-1.8.6-.09-.1-.18-.2-.28-.3.45-.93.9-1.86,1.36-2.79.12.43.24.86.43,1.55.42-.46.63-.7.85-.94-.2-.18-.38-.43-.62-.53-.2-.09-.47-.02-.71-.03.91-.57,1.53-1.3,1.13-2.81.72.46,1.12.71,1.51.95.63-.48.42-.91.01-1.25-.32-.26-.74-.4-1.1-.63-.6-.39-.86-.97-.29-1.5.87-.82,1.04-1.79.68-2.8-.41-1.14-.04-2.22.04-3.36-.3-.07-.55-.13-.95-.22,1.91-.97,2.56-2.45,2.19-4.44-.51.67-.63,1.69-1.92,1.7.25-.79.5-1.53.77-2.39-.48-.22-.89-.4-1.55-.7,1.51.06.91-.97,1.1-1.5.6-.29,1.15-.55,1.7-.81.13.22.25.44.45.79.22-.36.38-.54.45-.76.04-.13-.05-.31-.12-.66-.34.31-.58.53-.81.74ZM195.28,683.15c-.79.26-1.56.68-2.36.75-.9.08-.53.61-.61,1.03.99-.63,2.47-.4,2.93-1.81.55.02,1.09.02,1.07-.84-.34.29-.69.58-1.03.87ZM31.44,709.14h-1.43c.78.61,1.11.28,1.45-.04-.07.99-.53,1.62-1.54,1.9-.6.17-1.21.5-1.22,1.44,1.23-.22,2.43-.19,3.28-1.26-.05-.36-.08-.72-.16-1.06-.09-.34-.24-.67-.37-.99ZM86.9,631.55c.6.65,1.09.26,1.54-.34-.53.13-1.06.26-1.59.39.25-.63.5-1.26.75-1.88-.13-.08-.26-.16-.39-.24-.91.94-1.82,1.88-2.76,2.85.42.32.63.48.94.71-1.67,1.31-3,2.83-4.25,4.68q1.42-.27,1.95-1.04c.17-.24.32-.53.54-.7,1.24-.95,2.25-2.03,2.53-3.66.05-.29.47-.51.72-.77ZM395.66,732.68c.1-.72.29-1.4.27-2.08-.06-3.15-.2-6.3-.26-9.45-.04-2.17-1.16-3.57-3.09-4.26-1.41-.51-2.92-.78-4.4-1.05-2.75-.5-5.46-.01-8.06.75-2.99.87-5.89,2.07-8.8,3.21-.82.32-1.63.83-2.27,1.44-3,2.86-5.39,6.2-7.51,9.74-3.01,5.05-4.11,10.73-4.81,16.42-.54,4.38-.49,8.8.49,13.2.89,4.01,2.17,7.86,4.39,11.27,2.88,4.43,6.32,8.37,11.03,11.11,4,2.32,8.14,3.63,12.78,3.36,2.98-.17,5.87-.58,8.71-1.57,3.09-1.07,5.61-2.74,7.33-5.58,3.22-5.3,4.03-11.08,3.45-17.14-.07-.78-.26-1.55-.47-2.31-.23-.8-.67-1.53-1.63-1.4-1.14.15-.82,1.13-.89,1.88-.21,2.34-.24,4.73-.71,7.02-.83,4.03-3.01,7.17-7.14,8.41-2,.6-4.12.9-6.21,1.11-2.05.2-4.06-.2-6.04-.85-2.62-.86-4.67-2.53-6.6-4.36-3.07-2.91-5.12-6.51-6.85-10.36-2.5-5.55-2.86-11.37-2.35-17.25.46-5.17,2.03-10.08,4.89-14.5,1.07-1.66,2.34-3.08,4.11-3.99,3.85-1.98,7.89-3.08,12.26-2.54,3.26.4,5.68,1.97,6.75,5.2.3.91.37,1.89.58,2.84.14.61-.06,1.39,1.04,1.74ZM329.61,772.35c.53,1.23,1.03,2.33,1.49,3.44,1.31,3.18,2.65,6.35,3.9,9.56,1.01,2.58,2,5.16,1.27,8.07-.47,1.84.29,2.6,2.2,2.57,2-.03,3.99-.12,5.99-.22.27-.01.54-.19,1.01-.36-.2-1.03-.23-2.09-.61-3.01-1.52-3.7-3.06-7.39-4.77-11-2.44-5.14-5.1-10.18-7.55-15.32-3.8-7.99-7.48-16.03-11.24-24.04-1.8-3.84-3.66-7.66-5.54-11.46-.42-.85-.89-1.97-1.63-2.32-1.87-.88-3.96-1.06-6.04-.78-.62.08-1.01.55-.82,1.18.2.67.51,1.33.9,1.91.33.49.88.83,1.28,1.28,1.21,1.33,2.01,2.78,1.89,4.72-.11,1.86-.21,3.71-.41,5.58-.47,4.44-.51,8.93-.89,13.39-.27,3.12-.52,6.3-1.3,9.32-1.12,4.34-1.38,8.69-1.27,13.13.1,3.8.25,7.63-1.06,11.32-.64,1.82-1.13,3.7-2.52,5.16-.36.38-.62.9-.82,1.39-.51,1.28-.07,1.99,1.27,2.11.42.04.85.02,1.27,0,2.29-.18,4.59-.4,6.88-.56,1.79-.13,2.13-.49,1.84-2.24-.23-1.37-.62-2.73-.73-4.11-.33-4.22-.61-8.45-.8-12.69-.08-1.79.12-3.6.2-5.39,5.6-.95,11.03-.53,16.62-.6ZM431.36,734.12c-.23-1.09-.38-1.73-.49-2.38-.46-2.75-.82-5.52-1.38-8.24-.94-4.57-2.01-9.11-3.04-13.65-.33-1.45-1.14-2.21-2.52-2.12-1.38.09-2.77.3-4.13.58-1.21.25-1.4.58-1.04,1.81.41,1.39.89,2.78,1.52,4.08,2.59,5.33,3.71,11.13,5.34,16.76.77,2.66,1.23,5.4,2.26,8.02,1.28,3.26,2.3,6.63,3.35,9.98,1.36,4.33,2.7,8.66,3.92,13.03.7,2.5,1.39,5.04.75,7.69-.08.34-.05.73-.01,1.09.11,1.05.47,1.46,1.53,1.33,1.07-.12,2.13-.44,3.15-.8,2.09-.73,2.29-1.13,1.7-3.22-2.35-8.28-4.89-16.5-7.98-24.54-.11-.28-.11-.61-.24-1.36,1.59,1.3,2.94,2.23,4.07,3.37,1.18,1.19,2.17,2.59,3.24,3.9,1.81,2.21,3.26,4.65,4.41,7.26,1.12,2.56,2.13,5.15,2.6,7.92.06.35.14.74.34,1.03.26.37.64.64.97.95.32-.39.7-.75.95-1.18.13-.23.06-.6,0-.89-1.02-5.47-1.29-11.08-3.19-16.39-1.89-5.28-4.6-9.87-9.64-12.74-1.13-.64-1.12-.81-.51-2.03,1.83-3.62,3.66-7.25,5.48-10.88.68-1.35.91-2.77.54-4.24-.32-1.29-.73-2.57-1.13-3.84-.16-.5-.3-1.08-1.25-1.05-2.12,7.18-4.98,14.1-9.55,20.75ZM183.59,655.79c-.12,0-.24-.02-.37-.03-.08.07-.23.13-.24.21-.73,3.28-1.46,6.57-2.14,9.86-.1.51-.06,1.11.11,1.6.66,1.81,1.39,3.6,2.12,5.38.07.18.31.28.48.42-1.15-5.85-.95-11.64.04-17.45ZM246.02,762.43c1-1.64.63-3.46,1.06-5.27-.98-.07-1.69-.16-2.4-.15-.33,0-.73.15-.96.37-1.28,1.2-1.48,2.83-1.09,4.34.37,1.43,1.86.58,2.84.81.11.02.23-.04.55-.1ZM190.23,672.14c-.17-.68-.26-.95-.31-1.24-.24-1.41-.93-2.34-2.36-2.86-1.1-.4-2.04-1.24-3.05-1.88-.26-.17-.52-.35-.83-.56-.29,1.03-.15,1.85.45,2.52,1.58,1.78,3.49,3.07,6.1,4.02ZM182.26,672.97c-.07-.17-.14-.34-.21-.52-.65.21-1.4.28-1.91.68-.57.44-1.1.57-1.79.61-1.2.06-1.63.51-1.69,1.69-.06,1.04.15,2.02,1.02,2.75,1.41-.53,2.77-1.01,4.1-1.56.18-.08.22-.5.44-1.05-1.44.47-2.56.83-3.74,1.22-.49-.76-.89-1.38-.18-2.17.22.13.38.2.51.31,1.16.97,1.26.92,1.79-.39.18-.44.65-.77,1.01-1.12.19-.18.43-.3.65-.45ZM175.68,654.21c-.11.11-.22.22-.33.32,1.47,2.85,3.17,5.57,4.93,8.44,1.07-2.29,1.04-2.4-.34-3.9-.9-.98-1.73-2.03-2.6-3.03-.54-.62-1.11-1.22-1.67-1.82ZM174.3,665.93c-.21,1.23-.21,2.16.86,2.71,1,.51,1.99.45,2.91-.22,1.04-.76,1.14-2.37.13-3.14-.24-.18-.8-.12-1.11.03-.25.12-.36.55-.51.8-.75-.06-1.4-.11-2.28-.18ZM179.48,668.61c-1.54.84-.38,1.95-.6,2.86-.48.44-.95.74-1.48.01-.61-.85.66-.76.69-1.45-.77-.08-1.51-.17-2.23-.24-.33,1.62-.1,2.23.93,2.74.9.44,2.56.19,3.2-.61.91-1.15.12-2.13-.51-3.3ZM172.64,665.63c1.69-.46,3.08-.79,4.42-1.24.24-.08.46-.69.43-1.02-.08-.85-1.01-1.79-1.73-1.9-.83-.14-2.33.5-2.71,1.2-.34.63-.06,1,.59,1.21.53-.53.61-1.65,1.69-1.32.51.16.79.53.55,1.2-.52.17-1.12.3-1.65.55-.49.23-1.21.17-1.58,1.32ZM188.29,666.98c-.27-2.24-1.23-3.11-4.61-4.18-.09,2.04,1.74,3.7,4.61,4.18ZM173.56,661.06c.17-.05.67-.09,1.07-.32.62-.35,1.25-.77,1.02-1.69-.21-.86-.9-1.52-1.76-1.54-.46-.01-.96.07-1.39.25-1.04.43-1.43,1.09-1.26,1.91.19.91.89,1.39,2.33,1.38ZM190.99,685.81c-.05-.16-.1-.33-.16-.49-1.02.04-2.13-.31-2.94.74-.08.11-.32.09-.49.13-.86.19-1.73.38-2.59.58-.98.23-1.09.91-.95,2.04,2.47-1.04,4.8-2.02,7.13-2.99ZM378.19,601.83c.06-2.03-1.84-5.2-3.46-5.91-.26,1.7,1.56,4.93,3.46,5.91ZM173.41,654.06c-.85-.43-1.25.18-1.85.58-.49.33-1.26.23-2.2.35.81.55,1.34.9,1.99,1.33-.73.44-1.21.72-1.83,1.09,1.27.27,3.65-.39,4.71-1.19-1.77-.57-1.78-.6-.81-2.16ZM44.9,675.54q-1.32-.01-1.74,2.27c1.26-.23,1.21-1.32,1.74-2.27ZM60.59,636.42c-1.67-.29-1.75-.25-2.14,1,.9.04,1.55-.28,2.14-1ZM103.41,615.03c-1.7.08-2.28.55-2.53,1.94.94-.72,1.74-1.33,2.53-1.94ZM59.5,645.05c-.47-.5-.45-1.67-1.73-1.24.19,1.01.59,1.59,1.73,1.24ZM51.27,652.08c-1.64.33-1.94.85-1.28,2,.39-.61.79-1.22,1.28-2ZM47.8,682.45q1.83-.12,1.43-1.34c-.65.26-1.31.46-1.43,1.34ZM58.86,641.45c-.57.5-1.03.9-1.7,1.48,1.85-.08,1.86-.09,1.7-1.48ZM37.32,694.29c-.62-.49-1.18-.43-1.62.12-.1.13.06.53.18.76.06.11.31.13.51.2.31-.37.61-.72.92-1.09ZM174.12,693.45c-1.19-1.09-1.32.03-1.81.14l.11.35c.45-.13.91-.26,1.71-.49ZM45.65,677.96c.14.1.29.2.43.31.31-.46.62-.92.93-1.38-.1-.07-.19-.14-.29-.21-.36.43-.72.85-1.07,1.28ZM27.8,736.56c.25-.24.51-.48.76-.72-1.01-.51-1.23-.24-.76.72ZM90.39,627.07c.11.07.22.15.33.22.57-.43,1.02-.93.9-1.81-.41.53-.83,1.06-1.24,1.59ZM47.33,660.23q.49.89,1.43.29c-.54-.11-.98-.2-1.43-.29ZM431.11,751.83l-.54.06c.11.55.22,1.11.33,1.66.12-.02.24-.04.37-.06-.05-.55-.11-1.11-.16-1.66ZM42.45,687.74v-1.58c-.66.64-.74,1.03,0,1.58ZM178.7,689.85c-.44.36-.76.63-1.08.9.11.11.23.22.34.33.52-.08,1.2-.01.73-1.23ZM432.84,759.01c-.15.01-.29.02-.44.04.09.37.18.74.27,1.11.1-.02.19-.04.29-.06-.04-.36-.08-.73-.12-1.09ZM47.02,684.64c-.97-.03-1.34.12-1.36,1.14.51-.43.8-.67,1.36-1.14ZM179.66,689.75c.87.3,1.13-.05,1.15-.67-.38.22-.76.44-1.15.67ZM25.98,734.62c-.18-.13-.31-.31-.41-.29-.13.02-.3.2-.31.33,0,.1.2.31.3.31.13,0,.24-.18.43-.34ZM56.67,646.77c-.17.16-.34.24-.37.37-.03.13.07.29.12.44.16-.11.36-.19.46-.34.04-.06-.11-.26-.21-.47ZM33.38,702.29c-.11.02-.21.03-.32.05l.1.82c.11-.02.22-.04.33-.05-.04-.27-.08-.54-.12-.82ZM32.95,719.13c.13.01.26.03.39.04.02-.3.04-.61.06-.91-.1,0-.21-.02-.31-.02-.05.3-.1.59-.14.89ZM433.87,764.71c-.12.1-.26.18-.25.23.03.14.13.26.19.39.07-.06.21-.13.2-.19-.01-.14-.09-.27-.15-.43ZM98.4,618.28l-.22-.2c-.22.23-.44.46-.66.69.08.07.16.15.24.22.21-.24.43-.47.64-.71ZM104.58,613.16c-.06.08-.13.16-.19.24,0,0,.09.11.12.1.1-.03.19-.08.28-.13-.07-.07-.14-.14-.21-.21ZM56.4,639.88c-.06-.06-.14-.2-.21-.2-.08,0-.15.13-.23.21.08.07.15.15.23.22.07-.08.14-.16.21-.23ZM63.5,643.25c-.09,0-.17,0-.26,0v.69c.07,0,.14,0,.22,0,.01-.23.03-.46.04-.69ZM55.55,655.36c-.17-.16-.27-.29-.39-.34-.06-.02-.26.1-.26.16,0,.14.09.28.14.41.14-.06.28-.13.51-.23ZM28.63,722.51c-.09-.13-.18-.25-.27-.37-.06.08-.16.16-.16.23,0,.1.1.19.15.29.08-.04.15-.09.28-.16ZM26.11,724.6c.07-.08.18-.16.19-.24,0-.09-.09-.19-.15-.28-.09.11-.19.2-.26.32-.01.02.14.13.22.2Z"/>
  <path d="M109.13,800.04c-.06-.52-.22-1.06-.16-1.57.19-1.63.46-3.26.72-4.88.07-.42.09-1.01.36-1.19,1.23-.85.77-2.01.73-3.12-.01-.42.09-.85.48-1.24.19,1.46.55,2.92.55,4.38,0,2.41,1.61,3.51,3.35,4.51.28.16.91-.27,1.51-.48.26.96,1.26.86,2.11.97,1.12.14,1.54-.65,1.93-1.54.31-.7.83-1.3,1.37-1.93-.06,1.09-.33,2.15.67,3.01.63.54,1.21.89,2.07.9,1.31.01,2.63.06,3.91.3,1.21.23,1.53-.73,2.06-1.21.89.11,1.67.21,2.53.32.09.33.21.78.35,1.31,1.64-.16,3.37.27,4.34-1.54,1.02-.09,2.09.53,2.92-.43.62-.73,1.3-1.37,1.56-2.38.22-.84.71-1.61,1.27-2.37-.09.88-.18,1.77-.29,2.65-.02.18-.18.37-.14.52.52,1.72-.39,3.34-.35,5.02h-33.85Z"/>
  <path d="M36.34,800.04c.02-.24.04-.48.07-.72q.24-2.3-1.82-3.33c-.09-.54-.19-1.12-.3-1.76-.42.03-.76.06-1.2.09.33-1.93-1.46-2.27-2.4-3.27-.04-.04-.11-.05-.16-.08-.81-.44-1.57.79-2.52-.07-.6-.54-1.59-.36-2.4.09-.7.39-1.26.07-1.75-.48-.31-.36-.66-.69-.99-1.03,0-.36,0-.73,0-1.09.43-.17.85-.33,1.28-.5,2.28,2.03,3.11,1.96,4.43-.53.09.31.18.49.19.67.02.74.27,1.42,1.06,1.41.39,0,.77-.55,1.18-.87.65.33,1.36.74,2.12,1.06,2.23.93,3.29.43,4.11-1.86.24.37.49.76.75,1.15.31-.31.72-.58.92-.96.34-.63.53-1.35.84-2,.17-.35.46-.63.85-1.16-.45,5.27-.89,10.24-1,15.23h-3.28Z"/>
  <path d="M22.87,716.69c.46.06.92.12,1.49.2-.26.9-1.01.66-1.49.89,0-.36,0-.73,0-1.09Z"/>
  <path d="M22.87,719.97c.29-.26.58-.52,1.01-.9.39,1.22-.39,1.37-1.01,1.63,0-.24,0-.49,0-.73Z"/>
  <path d="M312.79,329.75c.58.03,1.16.05,2.18.1-.67-1.13-1.01-2.06-1.64-2.7-.92-.94-1.83-1.82-2.01-3.46.86.24,1.68.44,2.48.7.84.27,1.77.46,2.47.95.7.5,1.34.72,2.16.57.21-.5.41-.99.62-1.49l-.05.04c.41-.08.89-.35,1.21-.21.91.39.93-.44,1.38-.92.54.32,1.08.64,1.86,1.11.1-.61.17-1.08.26-1.59,1.16.27,1.95,1.99,3.45.96.56.91,1.06,1.72,1.62,2.62-.39.91-.81,1.9-1.24,2.92.76.64.53,1.28-.16,1.97-.73-.03-1.49-.07-2.26-.11-.02.13-.03.25-.05.38.68.09,1.36.24,2.04.26,6.56.18,13.05.86,19.48,2.16,2.25.46,4.54.75,6.82,1.09.54.08,1.09.11,1.63.11,5.26-.07,10.53-.15,15.79-.24.38,0,.75-.11,1.12-.5h-3.51c-.03-.14-.07-.29-.1-.43,1.34-1.05,3.4-.73,4.48-2.21,1.25.52,2.28.48,3.36-.28.52-.37,1.38-.27,2.09-.35.29-.03.66.15.87.03,1.93-1.19,4.16-1.1,6.28-1.48,1.26-.23,2.57-.21,3.89-.08-2.79.41-5.28,1.55-7.64,3.08.79-.2,1.58-.39,2.36-.6,6.16-1.72,12.46-2.66,18.83-2.86,3.25-.1,6.53.32,9.79.67,3.37.37,6.72.95,10.08,1.42,1.03.14,1.85.51,2.29,1.53.12.27.28.57.51.75,1.48,1.2,1.33,3.04,1.83,4.62.28.88.32,1.83.51,3.02-2.69,2.09-2.93,5.43-3.35,8.77-.58,4.63-1.38,9.22-2.12,13.83-.1.65-.36,1.28-.53,1.93-1.22,4.43-3.95,7.42-8.39,8.79-1.8.55-3.57,1.17-5.37,1.7-2.03.6-4.05,1.3-6.13,1.65-4.8.81-9.66.74-14.51.49-1.33-.07-2.67-.11-3.99-.31-.67-.1-1.44-.37-1.92-.82-2.47-2.33-5.08-4.55-7.21-7.17-2.13-2.61-3.76-5.62-5.6-8.46-1.28-1.98-2.47-4.02-3.85-5.92-.73-1.01-1.78-1.79-2.71-2.65-.57-.53-.91-1.03-.66-1.89.22-.74.08-1.58.26-2.33.41-1.73-.11-3.09-1.46-4.3-1.01.37-1.38,1.22-1.56,2.19-.21,1.13-.33,2.28-.53,3.41-.47,2.61-.97,5.22-1.45,7.84-.03.16.05.34.09.63.52-.05,1.01-.09,1.73-.16-.22.44-.29.74-.48.93-.84.86-.74,1.78-.44,2.86.27,1.01.42,2.16.24,3.17-.29,1.63-.42,1.61,1.05,2.48-.19,1.49-1.13,3.02.44,4.32.04.04.09.1.09.15-.05,1.53.04,3.07-.19,4.57-.18,1.13-.76,2.2-1.22,3.44.43.15.94.32,1.86.63-.74.18-1.14.19-1.44.38-.31.19-.53.54-.79.81.33.16.65.4.99.46.24.04.53-.15.95-.01-.21.22-.4.48-.65.64-1.33.84-1.34.83-.34,2.13-.41.16-.92.22-1.2.5-.32.32-.45.84-.65,1.27-1.67.51-3.05,1.35-3.68,3.08-.25.69-.89.85-1.49.75-3.22-.54-5.7.54-7.37,3.25-.29.48-.55.97-.92,1.62-.19.01-.76-.11-1.09.12-.33.23-.43.8-.63,1.22-.16.33-.38.64-.44.98-.08.5-.27,1.24-.02,1.49.78.77.52,1.59.28,2.36-.4,1.31-.46,2.47.66,3.49.24.22.38.61.45.95.46,2.09,1.88,2.97,3.88,3.16.36.03.73.1,1.07.02,1.54-.34,2.13-1.03,2.25-2.64.07-.9.1-1.82.05-2.72-.08-1.28.44-2.27,1.43-2.97,3.62-2.58,10.35-3.28,14.19-.92.7.43,1.35,1.05,1.82,1.73.52.75.73,1.6-.11,2.45-.72.74-1.16,1.69-.63,3-.53-.18-.92-.2-1.14-.4-1.11-1-2.44-1.07-3.76-.81-1.54.31-3.25.12-4.5,1.55-.37.42-1.33.33-2.13.5.33,2.88-2.2,2.25-3.87,2.73v2.28c-.43-.07-.71-.1-.99-.16-1.71-.33-3.45-.65-5.11-1.07-1.66-.42-3.51-.64-4.99-1.91-1.22-1.04-2.69-1.88-4.19-2.45-1.04-.39-1.81-1.13-2.04-1.89-.42-1.36-1.51-2.12-2.15-3.23-.21-.36-.47-.74-.49-1.13-.11-2.17-.22-4.34-.16-6.5.02-.79.51-1.58.82-2.35.27-.67.58-1.33.87-1.99.05-.11.03-.28.11-.34,1.26-.95,1.9-2.41,2.94-3.5.5-.52,1.12-.87,1.17-1.66.06-.9-.22-1.67-.89-2.28-.18-.16-.36-.33-.53-.49.46-.05.93-.1,1.39-.15-.06-.17-.11-.33-.17-.5-.39.23-.78.46-1.18.69-.23.06-.46.17-.7.18-2.78.13-5.56.17-8.32.38-1.12.09-2.2.57-3.31.81-.57.12-1.18.21-1.76.15-1.23-.13-2.41-.18-3.54.46-.26.15-.57.26-.86.27-2.16.08-4.32.12-6.48.2-.35.01-.7.26-1.04.23-.89-.06-1.86-.03-2.64-.38-1.31-.58-2.46-.62-3.72.08-.68.38-1.38.15-1.96-.43-.79-.78-1.64-.97-2.8-.69-1.33.32-2.71.22-4.1-.24-1.08-.35-2.22-.63-3.48-.6-1.83.03-3.67-.55-5.5-.87-.53-.09-1.07-.32-1.59-.28-1.55.11-2.73-.39-3.3-1.74-1.21-.2-2.29-.34-3.34-.57-.39-.09-.83-.31-1.08-.61-.59-.7-1.24-1.07-2.19-1.06-.55,0-1.06-.29-.98-1.19.49.06.97.12,1.57.19-.36-.88-.56-1.81-1.08-2.49-.47-.63-1.29-1-2.07-1.57.13-.31.29-.72.58-1.4-.83-.08-1.5-.15-2-.2-.96-1.55-1.94-2.99-2.76-4.52-.3-.56-.25-1.32-.41-2.35.02.02-.22-.23-.5-.45-1.42-1.12-1.71-3.81-.2-4.7,1.2-.71,1.38-1.72,1.8-2.88,1.48.66,2.19-.44,3.13-1.33-.14-.39-.29-.82-.47-1.31.12-.08.24-.22.39-.26,1.21-.37,1.42-.57,1.33-1.72-.08-1.01-.27-2.01-.43-3.16.85.54,1.63.64,2.27-.51-1.67-.46-3.21-.26-4.75-.08-1.55.18-3.11.37-4.75.57.57.5,1.68.12,1.61,1.36-.71.39-1.45.73-2.25.07-.66-.55-1.19-.43-1.71.19-.19.23-.46.62-.63.59-1.89-.31-3.64,1.48-5.59.36-.26-.15-.68-.02-1.29-.02.5.78.87,1.35,1.37,2.14-2,.83-3.65-.72-5.59-.6.24.49.41.83.62,1.28-.3.11-.59.32-.7.25-1.42-.96-2.81-.21-4.16.1-1.87.43-3.71.59-5.57.13-1.87-.47-3.73-.99-5.61-1.4-1.04-.23-2.14-.45-3.33.2.23.33.41.59.65.95-.49.77-.78,1.86-2.21,1.48-.23-.06-.86.37-.84.53.1,1.16-.96,1.5-1.39,2.26-.41.72-.39,1.68-.57,2.56-.65.11-.66-.31-.6-.78.09-.72.2-1.45-.77-1.78-1.26,1.37-.22,2.98-.49,4.66-1.47-1.46-.97-3.24-1.7-4.79-.11.4-.33.79-.33,1.19.02,1.32-.45,2.48-1.09,3.59-.47.82-.78,1.59-.09,2.52.21.28-.12.96-.21,1.46-.18.06-.37.13-.55.19.11.11.22.22.34.33.05-.19.11-.38.16-.57,1.3.11,1.5.24,1.5,1.22,0,.95-.07,1.91-.27,2.9-.11-.56-.22-1.12-.39-1.96-1.66,1.73-.13,3.8-1.16,5.5-.77-1.33.14-2.91-.9-3.97-.14.02-.29.04-.43.06.14,1.25.28,2.51.43,3.85-1.51.38-2.73-.14-3.91-.84-.05-.03-.13-.05-.15-.09-.72-1.89-2.87-2.47-3.81-4.16.28,0,.56,0,.97,0-.4-1.28-.59-2.53-2.49-3,.33.72.48,1.13.69,1.51.28.52.59,1.03.89,1.54-1.88-.39-2.65-1.95-3.54-3.37-.18-.29-.29-.62-.71-.9-.03.31-.07.63-.09.94-.06.83.04,1.7-.22,2.46-.18.54-.81,1.25-1.3,1.29-.79.07-1.65-.29-2.09-1.16-.77-1.54-.78-1.54-2.13-1.27-.68-.99-1.37-1.88-1.92-2.85-.31-.55-.4-1.23-.51-1.6-.88-.59-1.7-.98-2.32-1.59-1.68-1.63-1.85-1.7-3.97-.72-.16-.13-.36-.26-.52-.42-1.08-1.09-2.01-2.2-3.8-2.43-1.16-.15-2.63-.75-2.77-2.51-.6.07-1.07.17-1.54.17-.66,0-1.41.1-1.95-.18-1.36-.71-2.8-1.09-4.27-1.31-.65-.1-1.36.15-2.25.27-.31-.48-.91-.44-1.69-.41-1.37.05-2.61.26-3.79.93-.26.14-.58.18-.87.24-1.81.38-2.63-.03-3.57-1.77-1.05.72-2.1,1.44-3.38,2.32-.15-.76-.29-1.21-.32-1.65-.27-3.89-1.02-7.67-2.06-11.43-.61-2.2-.81-4.53-1.06-6.81-.39-3.55-.61-7.12-1.01-10.68-.2-1.8-.56-3.6-1.01-5.35-.66-2.58-1.49-5.11-2.21-7.68-.28-.99-.53-1.99-.69-3-.82-5.46-.98-10.96-1.17-16.48-.12-3.5.45-6.87.68-10.3,0-.06,0-.12.03-.18,1.03-2.71,1.26-5.63,2.35-8.35,1.17-2.9,2.73-5.67,3.29-8.8.1-.56.55-1.06.87-1.58.93-1.52.67-2.09-1.1-2.44-.17-.03-.34-.1-.51-.15.73-2.71,1.03-5.5,2.02-8.12.83-2.2,2.02-4.07,4.3-5.08,1.33-.59,1.34-.83.8-2.41-.06-.17-.18-.35-.14-.5.75-3.26-.43-6.28-1.14-9.36-.09-.41-.34-.92-.19-1.21.59-1.16.11-2.23,0-3.36-.1-.98.03-2.06.35-3,.33-.95.98-1.8,1.58-2.63.18-.25.67-.27,1.2-.45-.05,1.13-1.4,2.21.36,2.99.27-.96.54-1.85,1.5-2.34.27-.14.24-.88.33-1.35.27-1.46.73-1.84,2.23-1.78.69.03,1.38.08,2.18.12-.08-.85-.14-1.45-.19-2.05.11-.06.22-.13.33-.19.42.35.84.7,1.34,1.12.23-.11.57-.17.74-.37,1.7-2.02,4.09-3.14,6.08-4.77,1.96-1.62,3.87-3.31,5.76-5.01,2.02-1.82,3.95-3.72,5.99-5.51.95-.83,2-1.56,3.08-2.22,1.23-.75,2.55-1.36,3.92-2.07.33.28.67.58,1.03.89.18-.17.36-.26.44-.41,1.58-2.83,4.24-3.31,7.12-3.21,1.31.04,1.8.73,1.71,2.06-.03.41-.16.81-.01,1.39.5-.6,1.09-1.15,1.48-1.81.88-1.51,2.01-2.7,3.62-3.42.16-.07.32-.18.45-.3,2.38-2.13,4.73-4.28,7.13-6.38.62-.55,1.38-.93,2.05-1.42.43-.31.83-.67,1.22-1.02.7-.63,1.38-1.28,2.27-1.81-.6.93-.77,1.77-.38,2.79.17.44-.05,1.06-.19,1.57-.33,1.22-.72,2.43-1.09,3.65.62.11,1.32.04,1.73.35.43.33.62,1.01.87,1.56.21.48.35.98.56,1.58.66-.26,1.14-.45,1.86-.74.55,2.01-.31,3.9-.29,6.02.39-.25.73-.35.9-.58.32-.43.45-1.02.82-1.39.63-.63.55-1.27.35-2-.24-.94-.54-1.88-.6-2.84-.09-1.3.07-2.58,1.7-2.98.28-.07.64-.26.74-.49.57-1.38,1.94-1.76,3.02-2.49,1.43-.98,2.89-1.92,4.43-2.76-1.34,2.12-3.21,3.76-5.17,5.32.09.13.19.25.28.38.72-.05,1.44-.11,2.28-.17,1.45-2.95,4.28-4.26,7.28-5.33.34-.12.81-.31,1.05-.18,1.23.7,2.32.2,3.61-.48-.16,1.87-2.18,1.56-2.75,2.88,1.82.52,3.16-.33,4.67-1.5.04,1.48-.83,1.8-1.52,2.1-.7.31-1.5.39-2.43.62.06.86-.46,1.38-1.44,1.5-.41.05-.84.15-1.22.33-.65.32-1.26.71-1.97,1.13.14.33.25.58.4.93-1.47,1.01-2.55,2.37-3.41,3.9.1.09.2.17.3.26,1.41-1.34,2.68-2.87,4.26-3.96,1.53-1.06,2.91-2.66,4.98-2.69.11.12.22.25.33.37-.27.41-.54.82-.81,1.23.07-.01.12-.05.15-.12-.26.72-.94,1.71-.69,2.1.58.92.47,2.34,1.76,2.77.58.19,1.21.25,2.06.42-.23-.69-.36-1.07-.51-1.52.18-.13.38-.39.55-.38,1.05.06,1.61-.62,2.24-1.3,1.31-1.42,2.75-2.68,4.68-3.22.2-1.37.17-1.41,1.7-2.71,1.42-1.21,3.04-1.92,4.99-1.53.57.11,1.18.02,1.84.02.17.96-.57,1.52-1.09,1.93-.55.42-1.42.44-2.51.73.78.24,1.19.37,1.62.51q-.45.97-2.61,1.72c2.93,0,5.56.52,8.36-.76-1.6-.8-2.98-.24-4.43-.19.12-.46.2-.8.3-1.13.46-1.42,1.37-1.72,2.59-.84,1.52,1.09,1.79,1.11,3.01.11-.31-.13-.55-.23-.88-.37.27-.98.64-1.75,1.91-1.7.33.01.68-.42,1.03-.64,0,0-.05.05-.05.05.65-.44,1.26-.93,1.94-1.3.73-.4,1.5-.74,2.29-1,.28-.09.86,0,.98.2.94,1.65,2.22.47,3.35.43.39-.02.77-.38,1.17-.43.66-.09,1.01.32,1.05.96.05.7-.33,1-1,.97-.87-.04-1.74-.11-2.66.03.82.81,2.84-.27,2.59,2.03.66-.36,1.18-.64,1.92-1.04-.28,1.56-.54,2.97-.8,4.42,1.62-1.12,3.26-2.24,5.03-3.46.23.48.35.72.51,1.04.78-.58,1.56-1.16,2.35-1.74.08.08.15.15.23.23-.21.78-.4,1.56-.64,2.32-.25.79-.56,1.56-.87,2.39.59.59,1.29,1.22,1.88,1.94.36.45.12.93-.36,1.22-.57.35-1.2.61-1.71,1.03-.26.22-.52.75-.43,1.03.21.64.78.42,1.22.2,1.61-.82,3.2-1.67,4.82-2.47.48-.24,1.03-.39,1.57-.44.29-.03.86.21.87.35.02.35-.11.86-.37,1.05-.63.46-1.38.75-2.05,1.15-.5.3-.94.68-1.34,1.14,3.27-1.14,6.4-2.57,9.8-3.28-.66.94-1.62,1.38-2.59,1.82-1.81.82-3.61,1.68-5.39,2.57-.42.21-.87.56-1.06.97-.55,1.22-1.35,2.1-3.07,2.41.56.31.78.43,1.03.56-.22.27-.43.54-.67.84.17.15.28.28.43.37.52.32,1.01.3,1.49-.13,1.22-1.09,2.41-2.21,3.69-3.22,1.18-.93,2.41-1.82,3.73-2.51.52-.27,1.35.08,2.04.15-.74,1.87-3.37,1.52-4.19,3.61.44.04.83.19,1.05.06,2.17-1.29,4.55-2.24,6.48-3.92.33-.29.76-.46,1.26-.55-.85,1.13-1.33,2.51-2.65,3.24-2.19,1.22-4.02,2.86-5.48,4.93-.28.4-.84.6-1.28.91.35.33.41.41.43.4,1.99-.92,4.23-1.49,5.28-3.72.33-.71.8-1.19,1.79-1.35-.32.59-.57,1.06-.87,1.61,1.59.46,3.15-.63,4.77.13-.65,1.47-1.93,2.17-3.07,3-1.12.81-2.26,1.59-3.39,2.39.06.13.13.25.19.38.47-.24.94-.46,1.4-.72,1.37-.76,2.75-1.51,4.09-2.32.72-.43,1.52-.86,2.02-1.5.83-1.05,1.72-1.44,3-.98.37.13.79.14,1.35.23-.55.75-.98,1.35-1.42,1.95.08.08.15.15.23.23,2.56-2.03,5.12-4.06,7.83-6.21.29.07.87.2,1.55.35-.02.29-.04.62-.07,1.08.38.14.78.29,1.33.49-1.79,1.08-3.43,2.07-5.01,3.02.23,1.15.44,2.23.68,3.46,1.07-.29,2.15-.84,3.07-1.65l-.17-.33c-.62.31-1.23.62-2.11,1.06.49-1.74,1.83-2.16,2.94-2.83,0,0-.05-.04-.05-.04.13.12.24.3.4.36.91.37,1.83.72,3.03,1.18,1.01-.17,1-2.31,2.84-2.17-.26.59-.46,1.05-.66,1.51.2.08.36.15.72.3-2.95.92-5.76,1.81-8.36,3.49.91,1.05,1.74.62,2.41.23,2.6-1.49,5.44-2.28,8.34-2.89.51-.11,1.04-.09,1.6-.03-1.19.43-1.89,1.19-2.25,2.4-.18.61-.76,1.24-1.33,1.57-.77.44-1.68.7-2.57.84-.49.08-1.05-.26-1.56-.73-1.3.57-2.59,1.18-3.92,1.7-.9.35-1.83.62-2.77.83-.78.17-1.33.54-1.61,1.29l.05-.05c-1.6.06-2.39,1.17-3.31,2.59,2.14-.21,4.04-.4,5.94-.58,1.67-.16,3.34-.54,4.95.37.33.19.83.15,1.24.1,1.71-.22,3.32.08,4.95.65,1.05.37,2.29,1.05,3.39-.07h-.05c.67.12,1.35.22,2.14.35-.23.8-.39,1.34-.64,2.21,1.2-.62,2.03-1.27,2.94-1.44.89-.16,1.88.17,2.82.28,0,0-.05-.05-.05-.05-.15.33-.29.65-.47,1.06.63.28,1.67.14,1.26,1.58.76-.33,1.2-.49,1.59-.71.37-.2.66-.57,1.05-.7.47-.16,1-.22,1.49-.16.13.02.38.75.26.9-.31.38-.76.7-1.22.89-1.08.45-2.21.81-3.46,1.26.64.92,1.1,1.58,1.65,2.37-.8.57-1.59,1.14-2.39,1.7l.11.27c1.75-.53,3.49-1.06,5.24-1.59.02.32.04.63.06,1.13,1.03-.5,1.88-.9,2.73-1.31-.03-.08-.05-.16-.08-.24-.92.16-1.84.31-2.77.47,1.14-.49,2.27-1,3.42-1.48,2.8-1.15,5.63-2.06,8.74-1.8,2.46.2,5.75,2.4,6.63,4.79-.41.06-.79.12-1.17.18-.58-.22-1.01-.98-2.19-.32.99.13,1.61.21,2.23.29.86.72,1.69,1.49,2.6,2.16,1.16.86,1.55,2.02,1.76,3.47-2.79-.92-4.56-2.99-6.83-4.34.18.98.44,1.78,1.35,2.21.88.42,1.32,1.17,1.26,2.27,2.1-.53,1.7,1.8,2.86,2.54.25-.34.46-.64.79-1.09.46,1.04,1.09,1.78.59,2.87-.15.33.15.89.32,1.32.34.84.82,1.63,1.07,2.5.16.57.03,1.22-.18,1.9-.95-1.45-1.38-3.09-2.45-4.46-2.45-3.13-2.34-3.21-3.69-3.13,1.81,2.38,3.34,4.75,4.4,7.44,1.03,2.62,1.77,5.27,2.46,8.32-.47-.34-.68-.41-.73-.54-.92-2.17-1.82-4.36-2.73-6.53-.21-.5-.37-1.06-.72-1.44-.47-.51-.98-.44-1.17.34-.72-.05-1.18-.34-1.5-1.06-.51-1.13-1.18-2.19-1.84-3.25-.15-.24-.55-.32-1.07-.6.06,2.53,1.76,4.16,2.35,6.19.12.41.47.74.82,1.27.71-.91,1.14-1.66,1.21-2.59.53.75.88,1.51.9,2.5.02.85.48,1.69.77,2.65-.56.14-1.04.27-1.53.4.87,2.72,1.24,5.47,2.76,7.87.39.61.2,1.58.31,2.78-.57-.46-.82-.61-.98-.82-3.14-4.01-6.59-7.73-10.26-11.26-.86-.83-1.7-1.63-2.23-2.8-.42-.93-1.48-1.55-2.19-2.36-.92-1.05-.74-1.93.5-2.54.58-.29,1.23-.46,2.11-.78-.93-.51-1.5-.08-2.15.08-2.02.49-3.07.57-4.49-1.46.27-.12.54-.24.81-.36-.6-.3-.83-.12-.73.44-.84.07-1.68.14-2.1.18-1.35-1.04-2.4-1.85-3.44-2.66-.41-.32-.79-.69-1.2-1.02-.22-.18-.48-.46-.71-.45-.74.05-1.04-.42-1.45-.9-.69-.8-1.35-.82-2.59-.2.2.29.39.57.61.9-.16.1-.33.3-.43.27-.83-.25-1.65-.54-2.65-.88.45-.63.77-1.09,1.21-1.71-.63.24-1.12.43-1.68.64-.71-1.03-1.59-.91-2.63-.4-1.55.77-3.92,1.01-5.65.65.22.48.39.85.58,1.26-.73,1.03-1.65.13-2.69.23-.19.64-.39,1.35-.64,2.2-.58-.49-1.07-.91-1.63-1.4-.35.22-.68.47-1.04.63-1.26.55-2.47,1.05-3.97.73-1.2-.26-2.56-.36-3.49.8-1.76-.64-3.47-1.26-5.14-1.87.24-.14.65-.37,1.19-.67-2.4-1.19-4.84-.87-7.19-.93.17-.47.28-.77.41-1.15-.39-.04-.53-.1-.61-.05-.53.3-1.11.55-1.55.94-.88.79-1.77.96-2.79.15.05,1.14.17,1.27,1.22,1.18,1.27-.1,2.53-.27,3.79-.39.55-.05,1.11-.06,1.31.82-1.42.1-2.66.77-4.18.52-1.29-.21-2.66.07-3.72,1.25.09-.61.18-1.23.27-1.77-2.57.34-5.13.68-7.94,1.05.32-.62.5-.95.73-1.39-.29-.02-.5-.11-.59-.03-.47.38-.9.8-1.54,1.38-.68-.55-1.38-1.14-2.2-1.81-.54.06-1.33.15-2.28.25-.63.95-1.36,2.04-2.15,3.21-.92-1.06-2.24-1.72-2.34-3.43-.64.46-1.21.81-1.69,1.24-1.13.99-1.77,1.07-2.91.21-.39-.29-.72-.65-1.08-.97-.35-.31-.71-.61-1.18-.84.48,1.59,2.69,2.33,2.16,4.68-.75-.88-1.34-1.57-1.93-2.26-.11.04-.23.08-.34.12.12.78.23,1.55.35,2.33-.81.16-1.6.18-2.26.47-.88.39-1.54.13-2.15-.42-.8-.72-1.47-1.76-2.74-1.43-1.03.27-2,.76-3.32,1.28-.57-.16-1.4-.65-2.5.11-.9.62-.95,1.58-1.69,2.32.49.39.94.75,1.56,1.25-.48.03-.8.08-1.11.06-.17-.01-.32-.16-.49-.23-1.69-.68-2.12-.57-3.18.81-.38-.41-.74-1.12-1.15-1.15-.62-.04-1.28.39-1.92.62l-.06.45c.52.36,1.03.73,1.55,1.09-.02.06-.05.12-.07.18-.49-.16-1-.27-1.47-.48-1.03-.46-1.87-.11-2.69.5-.53.4-1.08.79-1.78,1.3.46,1.73-1.14,2.65-2.3,3.52-1.01.75-2.52.83-3.94,1.24,0,1.32-1.05,1.72-2.41,1.89q1.08.81,1.03,1.88l.05-.05c-.77.09-1.67-.03-2.28.32-1,.58-2.03,1.36-1.66,2.66-1.2,1.27-2.61,1.25-4.16.56l-.02.5c.26.51.52,1.03.74,1.44-.4,1.01-.83,1.91-1.09,2.86-.05.18.53.53.92.89-.61.57-1.22,1.14-1.94,1.81-.25-.11-.65-.29-.87-.39-.31,1.29-.59,2.47-.87,3.62-1.07.39-2.19-.52-3.13.55.77.3,1.78.26,1.72,1.45-.09,1.57-.96,2.37-2.44,2.56-.21,1.11.68,1.23,1.21,1.62l-.06-.05c.04.44.09.87.15,1.43,1.24-.36,1.34-1.37,1.73-2.17,0,0-.07.04-.07.04.37.39.75.78,1.19,1.23-.35.37-.75.73-1.07,1.15-.27.37-.45.81-.71,1.3.46.18.77.3,1.15.45-.32.43-.58.83-.89,1.19-1.15,1.29-2.33,2.55-3.47,3.86-.54.62-1.12,1.3-.32,2.28,1.77-1.01,3.25-2.52,5.59-2.76-.54,1.3-2.66,1.16-1.84,2.73-.79.62-1.87-.53-2.19.92.41.23.85.49,1.28.73q.22,1.94-.51,3.12c.66,1.36.93,2.68-.47,3.81-.32.26-.55.65-.87.92-.86.71-1.12,1.47-.57,2.54.59,1.15.54,2.32-.33,3.38-.63.78-1.16,1.6-1.88,2.34-1.06,1.08-1.75,2.6-1.77,4.24,0,.41.27.82.46,1.36-.68.19-1.29.36-1.9.53l-.03.28c.58.13,1.16.27,1.74.4-.35.84-.68,1.65-1.1,2.67.72-.22,1.21-.37,1.81-.54.15.86-.44,1.16-.84,1.55-.66.63-.95,1.23-.57,2.24.26.68-.07,1.58-.14,2.51,1.04.06.95-1.28,1.72-1.52l-.05-.04c.19.96-.27,1.62-.99,2.17-.96.74-2.01,1.44-1.44,2.93-.71,2.2-.06,4.72-1.66,6.77.58-.15,1.15.06,1.27-.85.11-.77.52-1.68,1.1-2.17,1.01-.85,1.68-1.85,2.23-3,.12-.26.38-.45.56-.65.67.15,1.28.28,2.09.46-.62.97-1.28,1.94-1.88,2.94-.85,1.43-1.64,2.9-2.48,4.34-.18.31-.35.69-.62.85-1.22.71-1.67,1.82-1.79,3.15-.05.54-.2,1.06-.3,1.59.05-.06.04-.12-.01-.16.43,1.16.76,2.32-.24,3.54,1.09.54,2.11.83,2.83,1.45.84.72,1.75.69,2.93.83-.51-.64-.89-1.13-1.39-1.76.43-.36.81-.68,1.5-1.25.25,1.73.45,3.12.69,4.76,1.47-.09,2.96-.11,4.44-.27,7.16-.79,14.31-1.64,21.47-2.43,4.75-.52,9.51-.96,14.25-1.51.81-.09,1.93.19,2.31-1.3.52.86,1.19,1.05,1.84.62,1.96-1.29,4.27-1.26,6.43-1.75,2.08-.47,3.92-1.29,5.78-2.3,1.33-.72,2.95-.9,4.44-1.32.05.15.1.3.15.45l-4.02,1.26c.03.11.05.23.08.34,2.06-.35,4.12-.7,6.17-1.06,2.2-.39,4.4-.82,6.61-1.17,2.15-.34,4.31-.64,6.47-.92,2.16-.27,4.32-.49,6.86-.78-1.11-.54-1.91-.92-2.7-1.32-.66-.33-1.33-.65-1.26-1.57l-.04.04c1.09-.41,1.88.29,2.74.73-.2.09-.4.17-1.01.44.83.28,1.27.43,1.72.58.04-.1.09-.21.13-.31-.3-.25-.6-.5-.9-.74ZM265.94,202.78c-1.25.46-1.42,1.48-1.51,2.63,1.03.03,1.5-.38,1.52-1.25.01-.47-.04-.94-.06-1.41q1.44-.48,1.41-1.63c-1.01.13-.86,1.18-1.36,1.67ZM221.99,323.72c-1.45-.42-1.35-.36-2.04.76-.73,1.19.03,2.51-.78,3.78.45-.11.68-.09.75-.19.76-1.06,1.54-2.11,2.19-3.23.17-.29-.13-.84-.21-1.28.8.24,1.23-.07,1.46-.92-.64-.16-1.2-.3-1.97-.5.29-1.24.56-2.39.83-3.53-1.97,2.46-1.97,3.11-.23,5.1ZM292.25,204.89c.93.03,1.7-.4,2.16-1.13.66-1.05,1.67-1.32,2.75-1.54.62-.13,1.24-.24,1.99-.39-1.07-.73-1.93-1.34-2.82-1.92-.99-.64-1.43-.56-2.23.36.25.3.5.59.57.67-.84,1.46-1.59,2.73-2.33,4.01-.73.32-1.46.63-2.19.95.02.14.05.29.07.43.53.03,1.12.23,1.57.06.63-.24.79-.85.47-1.51ZM337.32,346.05c.41-.5,1.12-.91.81-1.68-.33-.81-1.06-1.06-1.92-1.04-.66,0-1.32-.15-1.99-.13-.76.01-1.68-.19-2.13.62-.47.84.39,1.28.8,1.83,1.25,1.67,3.11,1.79,4.5.29l-.08.11ZM297.49,342.83c-.71-.08-1.36.2-1.55,1.29-.18,1.08.54,1.35,1.27,1.67.6.27,1.26.47,1.79.85,2.14,1.55,4.73,1.25,7.11,1.78.16.04.42.02.52-.08.97-.94,2.03-.25,3.04-.17.51.04.99.29,1.5.44.56-2.13.49-3.92-.15-4.91-.42.22-.93.71-1.23.6-.78-.28-1.47-.83-2.33-1.34.42-.45.73-.77.9-.96.81.36,1.46.64,2.08.91.22-.49.32-.77.47-1.02.04-.07.22-.05.37-.09,2.04,1.87.89,4.34,1.03,6.53h2.48v-3.71c-.54-.2-1-.37-1.58-.59.52-.75.93-1.36,1.43-2.07-.92-.16-1.71-.14-1.83-1.13-.13-1.1,1.01-.9,1.74-1.61-1.3-.02-2.43,0-2.55-1.41,0-.07-.18-.16-.29-.19-1.5-.44-2.98-.93-4.49-1.29-1.6-.39-3.06.46-4.59.7-1.8.28-3.24,1.3-4.67,2.31-.72.51-1.25,1.23-1.38,2.19.7.13,1.22-1.03,1.77-.1-.24.4-.47.76-.85,1.39ZM417.04,336.17c-.14-.47-.17-.85-.36-1.11-1.28-1.77-3.19-2.25-5.22-2.4-.71-.05-.91.51-.92,1.09-.02,1.31,0,2.62,0,4.22,2.19-.6,4.29-1.18,6.5-1.79ZM410.71,343.83c.47,3.37,1.89,6.54,2.34,9.92.45,3.36.84,6.72,1.27,10.2.21-.22.34-.29.36-.38.05-.23.06-.48.08-.72.4-4.21-.31-8.32-1.21-12.39-.44-2-1.09-3.96-1.65-5.93-.13-.47-.29-.97-1.18-.71ZM288.86,196.88c-.38.16-.84.55-1.13.45-1.55-.52-2.94.39-4.39.38-1.78,0-2.36,1.3-3.58,2.49h1.79c-.29.61-.4,1.12-.7,1.44-1.07,1.14-2.07,2.38-3.62,2.95-.37.14-.69.45-1.1.73,1.62.73,2.43-.69,3.59-.81,1.24-.13,2.49-.06,3.73-.18,1.15-.11,2.29-.34,3.39-.51-2.05-.85-4.22.02-6.57.03.21-.49.26-.74.4-.9.63-.73,1.08-1.54,1.53-2.4.49-.95,1.57-1.6,2.43-2.34.68-.58,1.44-.39,2.24-.19.89.22,1.63-.12,1.97-1.14ZM409.28,362.02c.17-.02.33-.04.5-.07-.05-1.35.09-2.69-.17-4.06-.25-1.3-.36-2.64-.66-3.93-.29-1.27.06-2.73-1.04-4.02-.71,1.36-.22,2.51-.07,3.65.26,1.91.55,3.81.86,5.71.15.91.38,1.8.57,2.7ZM316.67,344.1c1.11-1.46,1.83-2.91,1.5-4.89-.8.09-1.49.18-2.13.25q-.6,2.34.63,4.64ZM384.36,340.38c.11-.08.22-.16.33-.24-.39-.47-.75-1.29-1.17-1.32-.99-.07-1.58-.8-2.42-1.05-.32-.09-.66-.12-1.28-.23.33.47.56.68.62.93.32,1.22,1.04,1.62,2.29,1.45.51-.07,1.08.3,1.63.46ZM316.81,349.88c.76-1.56.64-2.95.85-4.25.08-.47-.11-.93-.64-.83-.27.06-.62.52-.66.83-.12,1.01-.15,2.04-.14,3.06,0,.29.27.57.58,1.19ZM290.79,197.07c.92-.54,1.74-1.01,2.56-1.49.57-.33,1.18-.62,1.69-1.04.21-.17.19-.63.34-1.25-1.67.95-3.01,1.71-4.34,2.49-.5.29-.62.71-.25,1.29ZM219.81,319.79c-1.39,1.21-1.9,2.76-1.8,4.54,1.03-1.35,1.98-2.73,1.8-4.54ZM288.32,194.23c.53-1.21,1.04-2.36,1.58-3.57-1.68.45-2.07.8-2.27,1.99-.11.65-.24,1.32.69,1.58ZM198.25,205.03c-.56.12-.91.09-1.11.25-.43.37-.78.83-1.13,1.28-.02.03.27.42.46.45.74.14,1.3-.21,1.64-.86.12-.23.08-.56.14-1.13ZM281.39,187.88c1.55.6,1.98.31,2.44-1.56-1.03.14-1.82.53-2.44,1.56ZM228.06,301.91c.62.08.93.16.95.12.44-1.02,1.29-1.87,1.47-3-.12-.07-.24-.13-.36-.2-.63.94-1.26,1.89-2.06,3.09ZM270.09,198.31c.58-.83,1.16-1.65,1.79-2.54-1.51-.25-1.79.11-1.79,2.54ZM209.21,202.32c.95,0,1.78-.57,1.58-1.01-.14-.31-.56-.65-.88-.67-.64-.04-1.15.35-1.16,1.05,0,.24.34.48.46.64ZM286.77,200.91c1.13-.74,1.08-.87-1.06-2.31-.2.18-.41.38-.53.48.56.65,1.07,1.23,1.58,1.83ZM171.43,230.56c.41-1.78.27-2.1-1.03-2.65-.34,1.08.17,1.8,1.03,2.65ZM325.98,208.18c.02-.13.05-.26.07-.38-.19-.1-.46-.33-.56-.27-.94.54-2.11.75-3,1.93,1.55.02,2.33-1.14,3.49-1.27ZM319.53,325.52c.58.83,1.16,1.66,1.88,2.69.22-1.56-.13-2.05-1.88-2.69ZM289.86,203.69q2.33-.94,2.57-1.54c-1.72.18-2.27.47-2.57,1.54ZM352.41,410.49c-.5-.96-.65-1.74-1.59-1.89q-.48,1.21,1.59,1.89ZM248.98,203.78c1.73.29,2.29-.08,2.41-1.6-.78.51-1.51,1-2.41,1.6ZM270.03,368.7c.1-.06.21-.11.31-.17.03-.39.06-.78.09-1.23-.52-.14-.94-.25-1.39-.37-.51,1.25.68,1.2.98,1.77ZM303.12,235.63c-.96-.4-1.52-.24-2.19.41.85.25,1.45.39,2.19-.41ZM249.95,201c1.19-.2,1.27-.34.86-1.96-.36.81-.6,1.35-.86,1.96ZM271.56,207.53c.1.11.2.22.3.34.53-.38,1.34-.49,1.09-1.64-.46.43-.93.87-1.39,1.3ZM325.35,328.16c.17-.05.34-.1.5-.15.07-.77-.13-1.44-1-1.89.17.68.33,1.36.5,2.04ZM323.15,327.15c.12-.09.23-.19.35-.28-.44-.63-.89-1.26-1.33-1.88-.42,1.21.51,1.54.98,2.16ZM349.87,227.14c.06.16.13.32.19.48.6.15,1.03-.04,1.4-1.07-.74.27-1.16.43-1.59.59ZM312.99,354.94q.76,1.21,1.95.62c-.6-.19-1.09-.35-1.95-.62ZM210.12,204.23c-.97-.84-.97-.83-2.19-.1.97.04,1.58.07,2.19.1ZM325.42,215.89c-.02-.14-.05-.27-.07-.41-.73.13-1.45.26-2.18.4.02.12.04.24.07.37.73-.12,1.46-.24,2.19-.35ZM227.47,212.85c.17.03.34.06.51.09.27-.52.6-1.03-.09-1.99-.19.86-.31,1.38-.42,1.9ZM273.7,208.72l.31.33c.55-.05.88-.33.91-1.49-.59.56-.9.86-1.22,1.16ZM319.82,328.33c-.08-.83-.67-1.19-1.58-1.24.52.41,1.04.82,1.58,1.24ZM261.98,207.78c.84,0,1.29-.3,1.01-1.42-.45.63-.73,1.03-1.01,1.42ZM394.39,345.79c-.41-.31-.69-.65-.82-.6-.34.13-.61.43-.9.66.19.2.42.61.55.58.36-.08.67-.34,1.18-.64ZM314.13,325.32q-.86-.53-1.64,0h1.64ZM212.65,366.16c.12-.04.24-.08.37-.12.04-.68-.08-1.31-.93-1.7.19.61.38,1.21.57,1.82ZM346.36,349.54c.59-.38.97-.63,1.35-.87-.18-.2-.33-.55-.53-.58-.7-.11-.93.31-.81,1.45ZM276.8,339.52q-.86,1.32,0,2.24v-2.24ZM295.88,196.12c.05.16.11.31.16.47.36-.11.73-.21,1.07-.36.08-.03.05-.29.1-.67-.55.23-.94.4-1.33.56ZM324.83,343.53c.21-.49.44-.81.44-1.12,0-.18-.39-.55-.53-.52-.29.07-.52.35-.77.54.16.21.32.42.86,1.1ZM277.38,346.82c-.19-.72-.31-1.2-.43-1.67-.41.61-.81,1.22.43,1.67ZM245.04,195.96c-.11-.04-.22-.09-.34-.13-.14.35-.27.69-.41,1.04.11.04.22.09.34.13.14-.35.27-.69.41-1.04ZM326.55,326.6l.48-.13c-.11-.27-.21-.54-.34-.79-.01-.02-.29.05-.29.06.04.29.09.57.14.86ZM289.78,208.37c.47-.21.82-.35,1.15-.52.04-.02-.01-.2-.03-.4-.59-.1-1.09-.11-1.12.92ZM367.92,231.06c-.23.31-.47.5-.44.63.04.18.28.41.46.44.16.03.36-.2.54-.31-.15-.21-.3-.42-.55-.76ZM336.05,356.26c-.04-.13-.07-.26-.11-.39-.48-.12-.86-.06-1.04.84.51-.2.83-.32,1.15-.45ZM219.31,316.16c.11.03.23.06.34.09.07-.21.16-.42.19-.64.02-.21-.04-.43-.06-.64-.08,0-.16.02-.23.02-.08.39-.15.78-.23,1.16ZM253.59,200.25c-.24-.16-.46-.36-.5-.33-.16.13-.31.32-.39.51-.02.05.27.32.33.29.19-.09.33-.27.55-.47ZM267.64,199.91c.07.14.14.27.21.41.29-.16.58-.33.87-.49-.04-.09-.09-.18-.13-.27-.32.12-.63.23-.95.35ZM318.7,211.27c.06.11.13.22.19.34.19-.09.42-.14.57-.28.16-.15.23-.39.35-.58-.07-.05-.14-.1-.2-.15-.3.23-.6.45-.91.68ZM363.64,230.26c-.01.13-.02.25-.03.38h.86c0-.09.01-.17.02-.26-.28-.04-.57-.08-.85-.12ZM277.37,348.34c.07-.09.13-.17.2-.26l-.81-.61c-.06.08-.12.16-.19.24.26.21.53.42.79.63ZM238.07,196.04c.13.07.26.14.39.21.11-.23.23-.46.34-.69-.1-.04-.27-.15-.29-.12-.16.19-.3.4-.44.6ZM319.68,345.7l.03-.42c-.27.03-.54.06-.81.08,0,.1,0,.19,0,.29.26.02.52.03.77.05ZM317.15,329.93c-.06.08-.12.16-.18.23l.54.5c.09-.11.17-.23.26-.34-.21-.13-.41-.26-.62-.39ZM299.77,236.39c.15-.15.34-.24.36-.37.02-.12-.13-.27-.2-.41-.17.12-.33.23-.5.35.1.12.2.25.33.43ZM218.44,362.92c-.1.02-.2.03-.29.05.05.26.09.51.14.77.09-.02.19-.03.28-.05l-.13-.77ZM229.44,189.27c-.1-.09-.2-.18-.31-.27-.14.23-.27.46-.41.69.08.06.16.11.25.17.16-.2.31-.39.47-.59ZM383.01,353.59c.13-.17.3-.29.31-.43,0-.1-.19-.21-.29-.32-.14.14-.27.28-.41.42.12.1.24.2.39.32ZM316.35,355.97c.04.11.08.21.12.32.2-.06.39-.12.59-.18-.05-.13-.1-.26-.15-.4-.19.09-.38.18-.56.26ZM263.78,241.01c-.07.07-.14.13-.21.2.14.18.29.36.43.54.11-.09.21-.18.32-.26-.18-.16-.36-.32-.54-.48ZM409.26,347.32c-.1-.08-.21-.18-.32-.27-.05.09-.16.21-.13.27.05.12.18.22.28.32.05-.09.1-.18.18-.33ZM233.03,266.67c.15.15.3.29.45.44.18-.19.36-.38.54-.56-.14-.13-.27-.27-.41-.4-.19.18-.38.35-.57.53ZM233.59,206.96c-.11-.04-.25-.12-.4-.13-.05,0-.19.18-.17.24.04.13.15.23.24.35.06-.09.13-.17.33-.46ZM274.14,237.64c-.12-.12-.21-.26-.34-.34-.03-.02-.17.1-.25.16.09.13.17.26.29.37.02.02.17-.1.3-.19ZM234.57,258.32l.26.11c.12-.29.24-.58.36-.87-.08-.03-.17-.07-.25-.1-.12.29-.25.57-.37.86ZM271.72,345.06c-.09.01-.19.02-.28.03l.08,1.24c.12-.01.24-.02.36-.04-.05-.41-.1-.82-.16-1.24ZM218.84,365.7c.13.04.27.08.4.12.04-.29.08-.57.12-.86-.09-.02-.18-.03-.27-.05-.09.26-.17.52-.26.79ZM229.75,196.45c.41.26.54.35.67.43.06-.09.18-.21.16-.27-.05-.14-.15-.33-.26-.36-.12-.03-.29.1-.57.2ZM266.94,194.31c-.3-.06-.46-.12-.62-.11-.09,0-.16.15-.24.23.12.09.25.25.36.24.13-.01.25-.18.5-.37ZM329.53,348.36c-.05-.08-.1-.16-.16-.24-.08.06-.24.15-.23.18.04.12.14.22.21.32.06-.09.12-.18.17-.27ZM323.66,340.36c.03-.13.07-.25.1-.38-.24-.04-.47-.09-.71-.11-.03,0-.07.19-.11.29.24.07.48.14.72.21ZM319.65,339.5c-.2-.16-.3-.29-.44-.35-.05-.02-.25.12-.24.15.05.14.1.32.22.38.08.04.25-.09.46-.18ZM243.84,203.75c-.07-.08-.13-.22-.21-.22-.09,0-.19.1-.28.16.09.1.17.21.26.31.08-.08.15-.17.23-.25ZM247.19,189.48c-.07-.08-.13-.22-.2-.23-.09,0-.19.1-.28.15.09.11.17.21.26.32.07-.08.15-.17.22-.25ZM373.86,255.24l-.33-.27c-.12.21-.23.41-.35.62.1.05.25.16.28.14.15-.14.27-.32.4-.48ZM237.18,200.92c-.15.28-.26.46-.25.47.13.1.29.18.44.26-.05-.19-.1-.39-.19-.73ZM252.14,197.1c.04-.16.08-.3.11-.45-.1,0-.23-.05-.29,0-.07.06-.12.2-.11.3,0,.05.15.09.29.16ZM242.17,200.13c-.1.13-.2.24-.29.36.08.04.18.13.25.11.09-.02.2-.11.24-.2.02-.04-.1-.15-.19-.27ZM316.9,328.34c.14-.09.23-.15.32-.21-.11-.1-.21-.22-.34-.28-.05-.02-.16.11-.25.18.09.11.19.22.27.32ZM300.21,198.9c-.03-.09-.04-.23-.09-.25-.07-.03-.18.04-.28.06.03.09.04.23.09.25.07.03.18-.04.28-.06ZM226.77,300.77l.22.18c.17-.19.33-.39.5-.58-.07-.06-.15-.12-.22-.19-.16.2-.33.39-.49.59ZM228.72,294.01c.08.05.16.11.24.16.13-.2.26-.4.4-.6-.07-.05-.15-.1-.22-.15l-.41.59ZM319.11,331.4c-.11-.14-.19-.29-.23-.28-.14.03-.26.12-.39.19.06.08.13.22.19.22.14,0,.28-.08.44-.13Z"/>
  <path d="M203.04,383.84c.07-2.24,1.1-4.36.44-6.71-.37-1.33,0-1.89.74-3,1.94,1.98,1.94,2.07-.1,3.31-.02.11-.09.27-.05.34,1.27,1.88,1.32,4.05.98,6.1-.42,2.57-.12,5.07,0,7.6.02.42.11.85.1,1.27-.11,2.91,1.36,4.9,3.64,6.5,1.03.72,2.07,1.53,2.82,2.52,1.66,2.2.77,4.5-1.92,5.09-1.91.42-3.84.4-5.71-.32-1.63-.63-3.27-1.22-4.89-1.87-.38-.15-.74-.4-1.04-.68-1.3-1.23-2.96-1.62-4.63-1.91-1.53-.27-2.52.77-2.49,2.38.01.48-.16.98-.08,1.44.15.8.33,1.63.69,2.36.42.86,1.12,1.58,1.55,2.43.22.43.25,1.06.13,1.54-.44,1.8-.97,3.58-1.48,5.43-1.13.39-1.95-.07-2.76-.82-.79-.74-1.64-1.42-2.51-2.05-1.22-.89-2.05-2.04-2.47-3.48-.33-1.14-.87-2.05-1.89-1.86-.98-1.04-1.66-1.96-2.52-2.64-2.42-1.92-4.74-3.87-6.74-6.29-1.41-1.72-2.43-3.55-3.46-5.46-.69-1.29-1.2-2.53-1.51-3.98-.26-1.24-1.18-2.36-1.92-3.47-1.66-2.49-3.13-5.12-3.78-8.01-.6-2.63-.91-5.38-.5-8.12.09-.6.24-1.21.2-1.8-.17-2.39.6-4.65,1.55-6.66,1.36-2.9,3.51-5.25,7.21-5.21,1.21.01,2.42-.14,3.63-.14,2.52,0,4.91.64,7.23,1.6,3.08,1.27,6.19,2.42,8.88,4.49,2.58,1.99,4.83,4.17,6.09,7.29.95,2.35,2.21,4.57,3.28,6.88.46.98.74,2.05,1.2,3.03.48,1.05,1.07,2.06,1.61,3.08.16-.06.31-.12.47-.18ZM196.61,372.3c-1.54-.23-2.15.57-2.91.99-1.67.92-3.24,2-5.27,2.11-1.97.11-3.92.49-5.88.72-.41.05-.91.09-1.24-.1-1.28-.74-2.15-.22-2.94.78-.26.33-.64.57-.88.91-.91,1.27-2.05,2.47-2.61,3.88-.84,2.09-1.31,4.34-1.83,6.55-.19.8-.23,1.71-.06,2.51.54,2.47.89,5.05,2.46,7.15,1.15,1.54,2.24,3.28,3.77,4.35,2.61,1.83,5.59,3.08,8.76,3.77.79.17,1.15-.15,1.32-.84.41-1.66-.29-3.01-1.96-3.58-.79-.27-1.66-.32-2.47-.54-.86-.23-1.73-.47-2.52-.85-2.1-1.02-2.99-3.14-4.1-4.97-.46-.75-.53-2.21-.09-2.91.74-1.17.95-2.47,1.5-3.66.27-.59.56-1.31,1.05-1.62.91-.57,1.53-1.31,2.14-2.15.97-1.31,2.02-2.56,3.1-3.78.35-.39.84-.69,1.31-.94,1.86-1.01,3.74-1.99,5.61-2.99,1.88-1,2.56-2.87,3.74-4.8ZM184.86,369.27c-.12-.48-.33-1-.35-1.52-.02-.93-.5-1.6-1.05-2.25-.78-.93-1.62-.91-2.07.2-.4,1-1.07,1.19-1.97,1.23-.75.03-1.5.11-2.73.2.67.73.96,1.33,1.36,1.42.67.15,1.42-.02,2.31-.07-.38.55-.71,1.02-1.07,1.53.58,1.05,1.14,1.99,2.57,1.95.32-.01.67.4.99.65.67.51,1.35.52,1.63-.24.42-1.1,1.06-1.93,2.06-2.79-.52-.1-1.05-.2-1.69-.32ZM179.18,363.09c-.33.65-.73,1.16-.63,1.29.29.37.76.63,1.21.84.05.03.58-.59.51-.73-.2-.43-.58-.77-1.09-1.39Z"/>
  <path d="M360.64,444.7c-.61-.18-1.22-.36-1.98-.59-.05-.18.86-.82-.34-1.04-.41.71-.65,1.8-2.11,1.33.33.74.53,1.21.8,1.84h-3.23c-.07-.11-.27-.39-.46-.67-.13.03-.31.02-.34.07-.18.39-.31.71-.9.66-.76-.06-1.58.24-2.28.05-1.27-.34-2.38.18-3.56.3-.89.09-1.8-.07-2.7-.1-.53-.01-1.05.03-1.58.06-.34.02-.77.2-1.02.06-.95-.53-1.72-.38-2.44.39-.68.72-1.45.41-2.19.1-.66-.28-1.29-.61-1.83-.87-.43-.66-.74-1.33-1.23-1.82-.97-1-1.1-1.8-.06-2.7.91-.78,1.92-1.51,2.99-2.02,1.4-.66,2.8-.96,4.51-.73,1.61.22,3.4-.51,5.05-1.03,1.88-.59,3.68-1.43,5.54-2.08.55-.19,1.19-.11,1.86-.16-.03.32-.05.54-.09.93.49-.09,1.13-.02,1.35-.29,1.23-1.49,2.92-2.21,4.67-2.99.72,1.24,1.86.44,2.6.17,1.4-.5,2.77-.77,4.23-.73,1.44.05,2.63-.4,3.14-1.7,1.99-.57,2.66,1.31,4.03,1.6-.04,1.8-1.79,1.23-2.68,2.13.41.16.72.4.97.35,1.83-.37,3.66-.79,5.47-1.23.52-.13,1.01-.48,1.53-.54,1.77-.18,3.4-.69,5.02-1.45.93-.43,2.13-.43,3.2-.38,1.54.08,3.07.4,4.85.65.23.44.58,1.12.91,1.75-1.22,1.38-1.22,1.36-2.76.78-.96-.36-1.92-.73-2.92-.97-.56-.14-1.25-.2-1.75,0-1.26.53-2.64.84-3.63,1.97-.33.38-1.07.46-1.64.54-.97.14-1.92.23-2.47,1.3.69.77,1.35,1.51,1.97,2.2-.77,1.59-1.83,2.33-3.41,1.96-1.34-.32-2.63-.81-3.09-2.37-1.02.43-1.2.91-.67,1.61l.04-.03c-.71-.02-1.04-.41-1.27-1.07-.17-.48-.53-.94-.91-1.3-.22-.21-.86-.35-.97-.23-.83.92-2,.64-2.99.97-.79.26-1.62.45-2.35.83-.68.35-1.25.9-1.92,1.41-.28-.22-.53-.37-.72-.57-.2-.21-.35-.46-.55-.73-1.01.42-.82,1.08-.57,1.81.29.85.5,1.72.75,2.58,0,0,.09-.09.09-.09ZM357.41,442.68c.11-.81.17-1.28.27-2.11-.85.71-.95,1.17-.27,2.11ZM377.71,439.65c-.24-.16-.45-.35-.49-.32-.17.13-.31.32-.4.51-.02.05.28.32.33.29.19-.1.33-.28.56-.49Z"/>
  <path d="M217.7,414.87c.14-.19.24-.51.41-.55,1.24-.32,2.79.45,3.4,1.59.4.74.82,1.48,1.34,2.14.2.24.71.23,1.21.37-.32.75-.2,1.56.38,2.36.88,1.19.7,2.66.78,4.03.03.43-.32.88-.49,1.3-1.79-.02-2.22.33-2.13,2.04.1,1.86.35,3.71.57,5.56.14,1.19-.41,2.16-1.15,2.89-.56.56-1.5.79-2.37-.03.33-.23.59-.42.91-.64-.95-1.1-1.61.11-2.34.23-1.53-.8-2.18-2.19-2.52-3.91-2.06.09-3.96.28-5.86.24-1.87-.04-3.75-.19-5.59-.5-2.05-.34-4.85-2.52-6.05-4.5,1.12-.74,1.09-1.78.7-2.96-.36-1.09-.59-2.1-1.75-2.82-.85-.53-1.47-1.57-1.96-2.51-.33-.64-.06-1.42.65-2,.84.09,1.06.77,1.39,1.42.19.39.58.9.93.95,2.16.29,3.28,1.38,3.12,3.63-.01.16.13.32.23.54,2.1.18,2.51-1.69,3.44-2.94.94.31,1.3.81,1.1,1.78-.18.86-.19,1.76-.3,2.64-.11.89-.25,1.77-.39,2.76.96.14,1.86.08,2.7.69.45.33,1.44.21,1.91-.55.69-1.11,1.84-.69,2.81-.8.22-.02.63.5.73.84.16.5.13,1.07.19,1.67.73.12,1.42.24,2.29.39-.32-2.03,1.17-2.18,2.4-2.45,1.1-2.15,1.5-4.31.99-6.58-.27-1.22-.48-2.51-1.05-3.6-.49-.93-.45-1.85-.63-2.78,0,0,0,.07,0,.07Z"/>
  <path d="M194.13,427.68c1.48,1.04,3.02,1.99,4.39,3.15.59.5,1.01,1.37,1.2,2.14.2.82.53,1.32,1.52,1.51-.96,1.14-.86,2.28-.38,3.44,1.13,2.72,1.12,5.64,1.57,8.49.03.19-.12.42-.23.74-.89-.46-1.16-1.19-1.3-1.94-.14-.71-.48-1.16-1.09-1.57-.53-.35-1.05-.88-1.3-1.44-.66-1.55-1.17-3.17-1.74-4.76-.12-.34-.16-.73-.34-1.03-1.61-2.59-1.47-5.71-2.71-8.41l.4-.31Z"/>
  <path d="M233.75,306.26c.63-.75-.34-.99-.45-1.32,1.27-2.36,2.48-4.6,3.7-6.84.37,1.17.94,1.86,2.02,2.24,1.17.42,1.82-.76,2.96-.57-.8.56-1.6,1.13-2.48,1.76,1.29,2.11-.64,2.98-1.69,3.98-1.05,1-2.47,1.78-4.05.75h0ZM239.23,302.85c-.04-.13-.08-.26-.12-.39-.32-.03-.77-.2-.95-.06-1.08.87-2.06,1.84-2.74,3.11.57-.09,1.1-.22,1.49-.54.81-.66,1.55-1.41,2.31-2.13Z"/>
  <path d="M343.3,219.66c-1.79-.43-3.57-.89-5.37-1.27-.57-.12-1.18-.02-1.84-.02.76-1.92.97-2.06,2.72-2.06,1.15,0,2.29.01,3.44-.03,2.18-.09,4.12.82,6.18,1.22,0,.12,0,.25,0,.37-1.73.6-3.45,1.21-5.19,1.81,0,0,.04-.01.04-.01Z"/>
  <path d="M365.48,463.6c-.39-.36-.78-.72-1.04-.96-1.27,0-2.38,0-3.5-.02-.06,0-.12-.29-.14-.35,1.12-.63,2.12-1.48,3.27-1.77,2.5-.64,4.92-2.43,7.84-.75-.35.29-.61.7-.94.75-1.26.2-1.71.96-1.78,2.13-.02.37-.27.72-.42,1.08-.34-.19-.72-.32-1-.58-1.12-1.02-1.24-1.01-2.29.46Z"/>
  <path d="M316.12,203.67c.82-.95,1.83-1.4,3.1-1.3.4.03.82-.14,1.23-.19.57-.07,1.14-.16,1.72-.16.68,0,1.37.1,2.2.17.08.17.25.51.38.77.9.19,1.41-1.29,2.49-.21-1.41,1.24-2.88,2.12-4.96,2.43-.05-.8-.09-1.48-.13-2.29-.85-.1-1.57.37-2.1,1-.81.96-1.82,1.03-2.94,1.02-.96,0-1.1-.52-.96-1.29l-.04.05Z"/>
  <path d="M385.33,396.35c-.09,2.2-1.07,3.75-2.92,4.87-.73.44-1.41,1.14-1.85,1.88-1.11,1.88-1.17,1.96-3.55,1.04.32-.32.61-.59.86-.88,1.71-1.93,3.43-3.86,5.12-5.82.62-.72,1.11-1.63,2.34-1.1Z"/>
  <path d="M254.87,196.05c.25-.71.31-1.62.8-2.1,1.34-1.32,2.08-3.09,3.46-4.35.25-.23.73-.22,1.1-.32.1.38.32.77.28,1.14-.04.46-.29.9-.54,1.63.92-.47,1.63-.83,2.34-1.18.06.07.11.13.17.2-1.12,1.02-2.14,2.18-3.38,3.02-1.22.83-2.49,1.65-3.7,2.52-.17-.18-.34-.37-.52-.55Z"/>
  <path d="M352.67,205.41c-2.48.94-4.97.66-6.96,2.02-1.38-.75-2.72,1.08-4.26.02,1.06-1.19,2.24-2.02,3.71-2.53.24.32.48.64.71.94,2.1-1.09,5.21-1.38,6.8-.45Z"/>
  <path d="M360.43,468.33c-1.07-.45-1.78-.74-2.49-1.04-.52-1.3.51-1.92,1.32-2.64q-1.06-.39-2.4.33c.05-1.17.97-1.77,1.65-2.49.48-.5,1.43-.2,1.51.61.1.96,1.14,1.88.21,2.95-.12.14.22.63.26.97.04.36-.03.73-.06,1.3Z"/>
  <path d="M297.07,514.08c-.34.42-.4.58-.49.6-.64.14-1.26.35-.94,1.18.25.65.76,1.1,1.56.93.45-.1.9-.22,1.48-.09-.73.43-1.43.99-2.22,1.26-.95.32-1.39.88-1.67,1.86-.04-.6-.26-1.26-.08-1.79.66-2-.07-3.59-1.27-5.1-.17-.21-.22-.51-.39-.93,1.9-.07,2.66,1.38,4.01,2.1Z"/>
  <path d="M487.41,793.76c-2.03-2.28-2.5-6.62-.99-8.3.6.72.61.72.86,4,.1,1.39.56,2.79.13,4.3Z"/>
  <path d="M233.75,306.25c.2.56.4,1.12.63,1.76.42-.06.76-.12,1.1-.15.28-.02.57,0,.95,0,.11,1.16-.65,1.75-1.39,2.12-1.1.55-2.15,1.07-2.66,2.46-.64-.85-.48-1.45-.17-2.16.58-1.31,1.04-2.67,1.55-4.02,0,0,0-.01,0-.01Z"/>
  <path d="M212.58,419.14c-1.7.58-3.24,1.11-4.78,1.63q-.37-1.25,1.56-2.32c.99-.54,2.31-.31,3.22.69Z"/>
  <path d="M228.48,410.78l.43,5.62c-.11.02-.22.04-.32.06-.28-.5-.56-1-.89-1.59-.47.41-.9.78-1.37,1.19-.38-1.69-.4-1.74.85-2.27.75-.32,1.03-.68.79-1.51-.14-.46-.02-1-.02-1.5.18,0,.36-.01.54-.02Z"/>
  <path d="M326.08,216.65c1.98-.24,3.92-.97,5.94-.57.02.15.05.31.07.46-1.78.46-3.54.96-5.34,1.34-.77.16-.88-.14-.62-1.28,0,0-.05.05-.05.05Z"/>
  <path d="M232.01,298.11c.72-1.89,1.79-3.18,3.45-4.15.36,1.63-.81,2.48-1.45,3.43-.32.47-1.31.49-2,.72Z"/>
  <path d="M361.44,221.68c.49-.39.8-.85,1.17-.89,1.34-.17,2.13-1.85,3.74-1.4-.81,2-2.45,2.8-4.91,2.29Z"/>
  <path d="M228.44,318.16c.19-.37.35-.76.57-1.12.42-.69.64-1.34-.24-1.7.72-.92,1.32-1.68,1.92-2.45-.32,2,.6,4.54-2.3,5.23,0,0,.05.04.05.04Z"/>
  <path d="M311.39,195.16c-1.57.45-3.13.91-4.82,1.4.02-1.61,1.88-1.55,2.07-2.82.5.43.84.89,1.29,1.08.44.19.99.11,1.5.15-.01.06-.02.13-.03.19Z"/>
  <path d="M358.1,214.68c1.35-.19,2.71-.38,4.06-.56.25,1.55-.33,2.06-1.75,1.67-.4-.11-.75-.39-1.15-.53-.39-.13-.8-.19-1.21-.28.01-.1.03-.2.04-.31Z"/>
  <path d="M361.42,218.93c1.58-1.4,3.35-1.75,5.08-2.21l.16.36c-1.5.77-2.99,1.55-4.5,2.29-.11.05-.37-.21-.74-.44Z"/>
  <path d="M297.49,490.16c.39-.41.78-.81,1.28-1.32,1.13.21,1.95.99,2.81,2.08-.53.28-.96.5-1.47.77-.27-.57-.47-.98-.59-1.24-.78-.12-1.41-.21-2.05-.31,0,0,.02.02.02.02Z"/>
  <path d="M368.29,223.44c.87-.61,2.88-.87,3.48-.37.22.19.44.76.33.89-.2.25-.69.49-.98.41-.96-.24-1.89-.62-2.83-.94Z"/>
  <path d="M305.91,513.12c-.08-.43-.17-.87-.25-1.3,0,0-.05.05-.05.05,1.31-.51,1.82.92,2.88,1.25.15-.34.29-.64.49-1.11.32.56.59,1.03.87,1.52-.73.82-1.47.46-2.12.03-.58-.38-1.13-.68-1.84-.47h.02Z"/>
  <path d="M281.09,511.37c2.15.64,4.3,1.28,6.46,1.92-2.51.42-4.61-.47-6.46-1.92Z"/>
  <path d="M319.06,324.42c-.92-.2-1.85-.4-2.84-.62-.46-.58-1-1.26-1.52-1.92,1.79-.27,2.68,1.98,4.63,1.77-.15.39-.23.6-.31.81,0,0,.05-.04.05-.04Z"/>
  <path d="M337.09,500.73q1.87-.15,3.22.92c-1.02,1.29-2.01,1.01-3.22-.92Z"/>
  <path d="M350.31,220.29c.57-.34,1.11-.71,1.71-.99.61-.29,1.26-.47,2.14-.79-.61,1.24-2.13,2.17-3.7,2.5,0,0,.05.05.06.05-.03-.28-.07-.56-.11-.85,0,0-.09.08-.09.08Z"/>
  <path d="M292.59,188.09c-.1-.72-.15-1.09-.19-1.4.71,0,1.3.07,1.86-.02.49-.07.95-.32,1.48-.35-.57,1.32-1.98.89-3.16,1.77Z"/>
  <path d="M360.64,444.7s-.09.09-.09.09c.38-.35.76-.7,1.45-1.33-.13.86-.09,1.39-.3,1.8-.29.58-1.21,1.04-2.04,1.22-.13-.86.56-1.25.98-1.78Z"/>
  <path d="M337.93,200.55c.19,1.66-1.05,2.04-2.22,2.59-.06-1.33.63-2.07,2.27-2.56l-.05-.03Z"/>
  <path d="M317.59,192.6c.77-.76.92-1.97,2.21-1.76,0,1.71-.5,2.16-2.21,1.76Z"/>
  <path d="M310.49,191.15c-1.49.18-2.41,1.14-3.77.96,1.54-1.61,2.47-1.92,3.77-.96Z"/>
  <path d="M307.7,325.52c.97.47,1.44.81,1.95.9.46.08.96-.12,1.46-.05-.87.89-1.87.95-2.88.39-.23-.13-.27-.61-.53-1.25Z"/>
  <path d="M299.47,329.3c-1.39.59-2.72.16-4.06-.18,1.39-.55,2.72-.13,4.06.18Z"/>
  <path d="M228.62,408.33c-.74,1.1-1.25,1.87-1.84,2.75-.33-1.66.02-2.26,1.84-2.75Z"/>
  <path d="M289.98,517.63c1.21-.18,2.36-.13,3.11,1.01q-1.2.49-3.06-1.06l-.05.05Z"/>
  <path d="M273.57,504.15c.36.54.54.81.72,1.08-1.29.83-.11,1.76,0,2.72-1.04-.7-1.24-1.67-.71-3.8Z"/>
  <path d="M242.65,446.94q-.74.19-2.2-1.51c1.33-.1,1.47,0,2.2,1.51Z"/>
  <path d="M232.12,313.78c1.24,1.69,1.22,1.9-.45,2.81.16-.98.3-1.85.45-2.81Z"/>
  <path d="M340.78,214.38c.83-1.11,1.5-1.64,2.73-1.56-.51,1.21-1.46,1.24-2.73,1.56Z"/>
  <path d="M323.67,384.84c.78-.76,1.6-.55,3.31.74-1.18-.26-2.12-.48-3.31-.74Z"/>
  <path d="M258.93,493.99s.03-.08.03-.08c-.27.16-.53.44-.81.47-.57.05-1.16-.03-1.83-.06-.04-.36-.09-.73-.14-1.11,0,0-.04.05-.04.05.93.24,1.85.49,2.78.73Z"/>
  <path d="M309.12,498.21c.36.43.72.86,1.09,1.3-.71.8-1.27.38-1.62-.04-.2-.23-.02-.78-.02-1.18.18-.03.36-.05.55-.08Z"/>
  <path d="M384.52,323.77q-1,1.58-3.05.87c.73-.18,1.15-.27,1.56-.39.39-.11.78-.25,1.5-.48Z"/>
  <path d="M294.55,327.73c1.26-.19,2.53-.37,3.79-.56.02.15.05.3.07.44-1.27.21-2.55.42-3.82.63-.01-.17-.03-.34-.04-.51Z"/>
  <path d="M385.08,488.87c-.48.37-.8.67-1.18.84-.08.04-.39-.42-.59-.64.32-.28.62-.59.99-.8.09-.05.39.29.78.6Z"/>
  <path d="M344.74,201.39c-.74.65-1,1.8-2.42,1.75.67-.72,1.35-1.43,2.02-2.15.13.13.27.27.4.4Z"/>
  <path d="M316.16,203.63c-.48-.18-.96-.36-1.71-.64.38-.42.67-1.02,1.01-1.05.72-.05.7.64.71,1.19,0,.18-.03.36-.05.54,0,0,.04-.04.04-.04Z"/>
  <path d="M243.18,467.97c.92-.07,1.66.16,2.13,1.55-.95-.44-1.64-.76-2.33-1.07.07-.16.14-.32.2-.48Z"/>
  <path d="M332.65,327.21v2.22c-.14,0-.29,0-.43.01-.05-.74-.1-1.48-.16-2.21.2,0,.39-.01.59-.02Z"/>
  <path d="M335.96,205q-.24,1.61-1.22,2.07c-.48-1.19.59-1.24,1.22-2.07Z"/>
  <path d="M321.84,194.31c.46-1.09,1.25-1.3,2.28-.89-.76.3-1.52.59-2.28.89Z"/>
  <path d="M289.02,510.97c1.08-.75,2.07-.53,3,.22-1-.07-2-.15-3-.22Z"/>
  <path d="M281.3,509.11s-.09.08-.09.08c.83-.23,1.38-.06,1.47,1.2-.65-.26-1.11-.44-1.55-.67-.04-.02.11-.4.17-.61Z"/>
  <path d="M268.16,502.86c.49-.64,1.1-.55,1.82.05-.57.15-1.14.31-1.71.46-.04-.17-.08-.34-.11-.52Z"/>
  <path d="M212.22,386.32c-.19-.42-.38-.84-.57-1.26.2-.08.45-.29.6-.23.63.26.68.75-.03,1.49Z"/>
  <path d="M305.9,513.11c-.97.02-1.93,0-2.7-.75.09-.63.44-.72.9-.44.62.38,1.21.79,1.82,1.2,0,0-.01,0-.01,0Z"/>
  <path d="M226.71,362.63c.12.91.21,1.57.31,2.35-1.21-.57-1.14-1.27-.31-2.35Z"/>
  <path d="M298.19,331.62q.62,1.29-.85,1.54c.26-.47.5-.9.85-1.54Z"/>
  <path d="M217.7,414.87s0-.07,0-.07c-.39.32-.78.64-1.35,1.1-.03-.74-.06-1.24-.09-1.96.59.38,1.02.66,1.44.93Z"/>
  <path d="M226.24,427.45c-.37.08-.73.18-1.11.22-.04,0-.23-.43-.16-.56.32-.57.74-.37,1.26.34Z"/>
  <path d="M226.05,339.51c.15-.66.3-1.31.49-2.09q.44.96-.49,2.09Z"/>
  <path d="M323.66,197.72c-.38-.76-.04-1.14.6-1.55.22.77.12,1.24-.6,1.55Z"/>
  <path d="M350.78,469.28c.27.25.54.49.78.76.01.01-.29.36-.31.35-.3-.19-.58-.42-.87-.63.13-.16.26-.31.39-.47Z"/>
  <path d="M263.96,188.24c.47-.25.81-.42,1.16-.6.12.26.22.38.2.45-.24.64-.62.76-1.35.15Z"/>
  <path d="M275.91,473.41c.77.16,1.22.25,2.04.41-.97.53-1.43.5-2.04-.41Z"/>
  <path d="M243.94,466c.76.32,1.23.52,1.69.72-.05.12-.1.25-.16.37-.55,0-1.16.14-1.54-1.09Z"/>
  <path d="M231.49,422.42c-.39.63-.76,1.23-1.12,1.83-.09-.06-.19-.11-.28-.17.34-.6.67-1.2,1.03-1.79,0-.02.17.06.38.13Z"/>
  <path d="M308.3,324.51h-1.36c0-.09-.01-.18-.02-.27.46-.04.93-.08,1.39-.12,0,.13,0,.26-.01.39Z"/>
  <path d="M315.94,508.02c-.44-.33-.88-.67-1.32-1,.08-.12.16-.24.24-.35.47.3.94.59,1.42.89-.11.15-.23.31-.34.46Z"/>
  <path d="M279.87,187.5c-.44-.04-.89-.09-1.4-.14q.81-.92,1.36.19s.05-.05.05-.05Z"/>
  <path d="M295.89,511.71c.75.41,1.24.68,1.79.98q-.94.2-1.79-.98Z"/>
  <path d="M365.54,466.24c-.23-.4-.41-.57-.4-.74.01-.19.19-.38.29-.56.16.11.46.23.46.34,0,.24-.16.48-.35.96Z"/>
  <path d="M330.27,331.13c-.96.18-1.2-.13-.81-1.09.35.47.58.78.81,1.09Z"/>
  <path d="M224.49,336.49c.05.05.06.1.01.16.41-.48.86-.72,1.59-.31-.55.82-1.08.46-1.6.15Z"/>
  <path d="M310.51,503.37c.78-.58,1.5-.69,2.27.44-.89-.18-1.58-.31-2.27-.45,0,0,0,0,0,0Z"/>
  <path d="M304.71,194.63c.58-.19,1.16-.38,1.73-.57.05.13.09.26.14.39-.58.2-1.16.39-1.74.59-.04-.13-.09-.27-.13-.4Z"/>
  <path d="M291.81,484.26c-.07-.36-.15-.73-.22-1.09.12-.03.24-.07.36-.1l.37,1.04c-.17.05-.34.1-.51.15Z"/>
  <path d="M365.67,446.15l-.3-2.01c.09-.02.17-.03.26-.05l.44,1.93c-.13.04-.27.08-.4.12Z"/>
  <path d="M212.58,459.86c-.34-.33-.67-.67-1.24-1.22,1.09-.06,1.37.36,1.56.9-.11.11-.21.22-.32.32Z"/>
  <path d="M225.87,420.21c.11-.48.22-.96.35-1.56.69.7.17,1.12-.35,1.56Z"/>
  <path d="M361.08,371.93c-.35-.56-.56-.89-.89-1.41.93.14,1.14.47.89,1.41Z"/>
  <path d="M328.56,200.02c-.32.15-.65.3-.97.46-.06-.14-.12-.28-.19-.41.33-.14.66-.28.99-.42.06.13.11.25.17.38Z"/>
  <path d="M353.55,413.91c.66-.23,1.08-.37,1.53-.53q-.33,1-1.53.53Z"/>
  <path d="M247.5,468.21s.12-.09.12-.09c-.33-.15-.66-.3-1.15-.52,1.06-.5.96.16,1.03.61Z"/>
  <path d="M234,275.66c.26-.56.29-1.32,1.36-1.41-.14.41-.24.71-.34,1,0,0,.07-.04.07-.04-.38.13-.75.25-1.13.38l.04.08Z"/>
  <path d="M287.78,507.63c.56.56.9.9,1.44,1.44-1.14.02-1.36-.43-1.44-1.44Z"/>
  <path d="M300.73,193.51c-.29.16-.48.35-.67.35-.13,0-.26-.27-.38-.42.19-.11.38-.27.58-.31.1-.02.24.19.47.38Z"/>
  <path d="M253.21,468.36c.31-.15.61-.31.92-.46l.16.27c-.28.2-.55.39-.83.59-.09-.13-.17-.26-.26-.39Z"/>
  <path d="M272.47,470.32c-.15.16-.26.28-.37.4-.13-.16-.26-.32-.39-.49.13-.1.26-.29.39-.28.11,0,.22.21.37.37Z"/>
  <path d="M317.76,239.29h-1.24c.41-.65.77-.76,1.24,0Z"/>
  <path d="M253.95,193.5c-.03.07-.07.11-.15.12.26.18.51.35.77.53-.14.09-.28.19-.42.28l-.21-.93Z"/>
  <path d="M298.9,505.48c.02-.29.04-.59.07-.88.11,0,.21.02.32.02-.02.29-.04.59-.06.88-.11,0-.21-.02-.32-.03Z"/>
  <path d="M229.06,338.37c-.23.18-.38.38-.45.36-.19-.07-.34-.24-.51-.37.1-.11.23-.33.31-.32.19.03.37.18.65.33Z"/>
  <path class="cls-1" d="M42.87,664.71c.23-.21.47-.43.81-.74.07.35.16.52.12.66-.07.21-.23.39-.45.76-.2-.35-.33-.57-.45-.79,0,0-.03.12-.03.12Z"/>
  <path d="M227.3,324.25c-.15.16-.25.28-.36.4-.14-.15-.27-.3-.41-.46.13-.1.25-.29.38-.29.12,0,.24.19.4.34Z"/>
  <path d="M239.03,296.05c-.26.29-.52.57-.78.86-.08-.08-.17-.15-.25-.23.25-.29.5-.58.76-.88.09.08.18.16.27.25Z"/>
  <path d="M247.08,255.57c.24.19.49.38.73.56-.26.16-.51.32-1.08.67.21-.66.3-.97.4-1.28,0,0-.05.05-.05.05Z"/>
  <path d="M225.31,405.25c.18-.3.37-.59.55-.89.1.06.21.12.31.17-.17.32-.33.64-.5.97l-.36-.25Z"/>
  <path d="M300.92,516.76c.24.38.48.76.72,1.15l-.27.17c-.25-.38-.49-.76-.74-1.13.09-.06.19-.12.28-.18Z"/>
  <path d="M345.09,494.54c.29-.02.58-.03.87-.05.01.1.03.2.04.3-.3.06-.59.12-.89.18,0-.14-.02-.29-.03-.43Z"/>
  <path d="M45.17,652.57c-.19.22-.27.41-.4.46-.12.04-.3-.06-.45-.1.09-.14.15-.34.28-.41.11-.06.3.02.57.05Z"/>
  <path d="M322.19,497.95c-.21.12-.35.27-.48.27-.14,0-.28-.16-.43-.24.15-.13.28-.31.45-.36.1-.03.26.18.46.33Z"/>
  <path d="M237.47,294.89c.21-.35.43-.71.64-1.06.09.05.19.1.28.14-.18.38-.36.76-.54,1.14-.13-.07-.25-.14-.38-.22Z"/>
  <path d="M284.61,475.51c-.27.09-.53.22-.8.26-.09.01-.21-.21-.32-.33.19-.16.37-.33.56-.49.19.19.37.37.56.56Z"/>
  <path d="M361.53,375.27c-.1-.29-.2-.59-.31-.88.11-.04.22-.08.33-.11l.31.88c-.11.04-.22.08-.33.11Z"/>
  <path d="M340.23,201.39c-.3.24-.59.48-.89.72-.08-.08-.15-.15-.23-.23.27-.28.53-.56.8-.84.1.12.21.23.31.35Z"/>
  <path d="M394.57,321.75c-.17-.13-.3-.23-.42-.32.14-.15.28-.31.41-.46.12.12.31.23.32.36.01.12-.18.25-.31.42Z"/>
  <path d="M310.15,329.02c-.77.04-1.19-.4-1.7-1.24.97.21,1.21.86,1.65,1.28,0,0,.05-.04.05-.04Z"/>
  <path d="M355.54,205.33l.66-.67c.09.09.17.17.26.26-.22.22-.45.44-.67.66-.08-.08-.16-.17-.25-.25Z"/>
  <path d="M343.92,210.24c-.24.09-.47.19-.71.26-.03,0-.16-.25-.15-.26.21-.14.43-.27.66-.39.07.13.14.26.2.39Z"/>
  <path d="M261.84,186.75c-.24.17-.41.28-.57.39-.06-.14-.18-.3-.15-.41.04-.13.2-.27.34-.32.06-.02.2.16.39.33Z"/>
  <path d="M233.79,321.32c-.13.1-.24.22-.38.29-.04.02-.23-.18-.22-.2.09-.13.2-.24.31-.36.08.07.16.15.29.27Z"/>
  <path d="M293.87,188.86c-.24.33-.48.66-.72.99-.11-.13-.22-.25-.34-.38.36-.19.73-.39,1.09-.58,0,0-.04-.03-.04-.03Z"/>
  <path d="M329.95,195.38l-.11.73h-.25v-.77l.36.04Z"/>
  <path d="M333.26,199.23c.28-.13.57-.25.85-.38.04.08.09.16.13.24-.26.16-.51.32-.77.47-.07-.11-.14-.22-.21-.33Z"/>
  <path d="M298.51,514.88c.34-.03.68-.06,1.02-.09,0,.08.02.16.03.24-.34.05-.67.1-1.01.15-.01-.1-.02-.2-.04-.3Z"/>
  <path d="M351.4,418.21c.25-.06.43-.16.55-.11.12.05.19.25.28.38-.15.06-.31.18-.43.15-.13-.03-.22-.22-.39-.42Z"/>
  <path d="M293.3,502.67c.64.42.5.93-.03,1.45.02-.5.05-1,.07-1.5,0,0-.05.04-.05.04Z"/>
  <path d="M240.87,476.87c.16.23.31.35.33.49.01.1-.15.23-.23.35-.1-.12-.26-.23-.3-.37-.03-.11.1-.25.2-.47Z"/>
  <path d="M276.88,508.17c-.18.21-.35.42-.53.63-.07-.02-.14-.05-.21-.07.03-.17.03-.36.11-.49.08-.13.26-.19.4-.28.08.07.15.14.23.21Z"/>
  <path d="M214.39,389.33c.25.04.51.08.76.12,0,.08,0,.17,0,.25-.26.02-.52.03-.78.05,0-.14.02-.28.03-.42Z"/>
  <path class="cls-1" d="M357.68,239.7c-.1-.56.13-.74.73-.44-.27.12-.54.24-.81.36,0,0,.08.08.08.08Z"/>
  <path d="M221.96,376.29c-.21.28-.27.37-.34.46-.09-.12-.22-.23-.26-.37-.02-.06.13-.25.18-.25.16.02.31.11.42.15Z"/>
  <path d="M331.81,206.79c.32-.37.64-.75.96-1.12.1.86-.38,1.06-1,1.08,0,0,.04.04.04.04Z"/>
  <path d="M336.99,204.53c.23-.22.46-.44.69-.66.07.05.15.1.22.15-.07.17-.11.39-.23.5-.14.13-.37.16-.56.23-.04-.07-.09-.14-.13-.22Z"/>
  <path d="M350.31,220.29s.09-.08.09-.08c-.19-.14-.37-.29-.56-.43.13-.08.27-.16.4-.25.02.25.05.5.07.76Z"/>
  <path d="M358.36,216.35c.22-.06.44-.12.66-.18.02.07.05.13.07.2l-.65.22c-.03-.08-.05-.16-.08-.24Z"/>
  <path d="M347.86,215.78c.07.14.16.27.18.41,0,.05-.15.13-.24.19-.08-.12-.18-.24-.24-.37-.01-.02.16-.12.3-.23Z"/>
  <path d="M290.03,517.58c-.23-.08-.47-.16-.7-.24.1-.11.2-.21.3-.32.12.2.23.41.35.61,0,0,.05-.05.05-.05Z"/>
  <path d="M300.26,324.82h1.03v.15c-.33.02-.67.04-1.01.06,0-.07-.01-.14-.02-.21Z"/>
  <path d="M35.29,677.33c.19-.17.38-.35.57-.52.05.07.16.18.15.19-.17.18-.36.35-.54.53-.06-.07-.12-.13-.18-.2Z"/>
  <path d="M284.56,510.15c.07.09.14.17.21.26-.09.06-.23.19-.25.17-.11-.08-.19-.21-.28-.32.11-.03.22-.07.32-.1Z"/>
  <path d="M231.11,317.42c.11.23.2.36.22.49,0,.08-.11.18-.17.27-.11-.09-.3-.17-.31-.26-.01-.12.13-.26.27-.49Z"/>
  <path d="M233.27,275.99c-.11-.37-.22-.74-.44-1.48.56.55.86.85,1.16,1.14,0,0-.04-.08-.04-.08-.25.12-.5.24-.74.36l.06.05Z"/>
  <path d="M321.26,502.82c.08-.07.16-.18.26-.2.05-.01.14.13.21.2-.09.07-.17.17-.27.2-.04.01-.13-.13-.2-.2Z"/>
  <path d="M310.62,493.8c.05.08.1.15.13.23,0,.01-.09.09-.12.08-.08-.03-.15-.1-.23-.15.07-.06.14-.11.21-.17Z"/>
  <path d="M239.48,475.64c-.11.12-.16.25-.23.26-.1,0-.22-.06-.29-.13-.03-.03.03-.16.06-.25.15.04.29.08.47.12Z"/>
  <path d="M313.36,506.69c-.1-.02-.25,0-.29-.07-.06-.07-.03-.21-.04-.32.1.02.25,0,.3.07.06.07.03.21.03.32Z"/>
  <path d="M286.07,501.2c-.23.16-.45.31-.92.64.09-.51.13-.75.18-.99,0,0-.06.05-.06.05.25.13.51.25.76.38,0,0,.05-.07.05-.07Z"/>
  <path d="M370.09,221.15c-.04.1-.08.19-.12.29-.12-.07-.24-.14-.36-.2.07-.08.13-.2.22-.22.07-.02.17.08.26.13Z"/>
  <path d="M372.02,441.11c.07.09.18.17.21.27.05.14.05.3.04.45,0,.02-.27.05-.28.03-.05-.15-.09-.31-.08-.47,0-.1.09-.21.15-.31,0,0-.04.03-.04.03Z"/>
  <path d="M241.23,469.75c.1-.11.17-.24.22-.23.09.02.2.1.23.18.03.07-.04.18-.07.28-.12-.07-.25-.15-.38-.23Z"/>
  <path d="M244,463.38c-.09-.06-.22-.1-.26-.18-.02-.05.08-.17.13-.26.09.06.22.1.26.18.02.05-.08.17-.13.26Z"/>
  <path d="M277.11,452.99c-.05.08-.11.16-.16.24-.07-.06-.2-.11-.21-.18,0-.07.09-.16.14-.24.07.06.15.12.22.18Z"/>
  <path d="M312.38,513.37c.09.06.17.12.26.17-.06.08-.12.22-.19.23-.07.01-.17-.1-.25-.16.06-.08.12-.16.19-.25Z"/>
  <path d="M309.47,514.89c.23.08.46.17.69.25-.02.07-.05.15-.07.22-.24-.07-.47-.14-.71-.21.03-.09.06-.18.09-.26Z"/>
  <path d="M344.79,437.14c-.13-.23-.21-.36-.28-.5.13-.06.26-.16.4-.18.05,0,.2.18.18.25-.04.13-.16.24-.3.43Z"/>
  <path d="M234.9,431.28c-.15.09-.28.18-.42.23-.04.01-.13-.13-.2-.2.12-.08.24-.18.38-.23.05-.02.14.11.25.2Z"/>
  <path d="M329.79,326.1c-.01-.21-.04-.42-.03-.63,0-.03.15-.06.22-.09.06.23.12.46.18.7-.13,0-.25.02-.38.03Z"/>
  <path d="M214.02,391.19c.06.08.12.15.18.23-.08.06-.2.18-.23.16-.1-.07-.16-.18-.24-.28.1-.03.19-.07.29-.1Z"/>
  <path d="M293.91,188.89c.33-.14.66-.29.98-.43.02.1.04.2.07.3-.36.04-.72.07-1.09.11,0,0,.04.03.04.03Z"/>
  <path d="M327.34,383.95c.08.07.16.15.23.22-.11.06-.22.14-.34.16-.03,0-.1-.16-.15-.25.08-.04.17-.09.25-.13Z"/>
  <path d="M345.41,203.45c.15-.13.31-.25.46-.38.08.08.15.16.23.24-.18.1-.36.19-.53.29-.05-.05-.11-.1-.16-.15Z"/>
  <path d="M300.51,188.64c.2-.1.35-.2.52-.24.07-.02.18.1.27.16-.1.13-.19.27-.32.37-.02.02-.17-.1-.47-.3Z"/>
  <path d="M42.53,659.17c-.07.06-.14.12-.2.19-.05-.08-.11-.15-.15-.23,0,0,.09-.09.11-.08.08.03.16.08.24.13Z"/>
  <path d="M317.13,193.59c-.07.07-.16.22-.21.2-.11-.03-.21-.14-.31-.21.09-.05.19-.12.28-.13.08,0,.16.09.24.13Z"/>
  <path d="M310.83,498.47c.01-.24.02-.49.03-.73.07,0,.14,0,.21,0v.73c-.08,0-.16,0-.24,0Z"/>
  <path d="M229.93,312.31c.11-.21.22-.42.32-.63.08.04.16.08.24.13l-.33.63c-.08-.04-.16-.08-.24-.12Z"/>
  <path d="M231.46,308.83c.07.07.19.13.2.2.01.09-.06.19-.1.29-.1-.09-.21-.16-.28-.27-.02-.02.12-.15.18-.23Z"/>
  <path d="M239.79,305.45c.15-.19.31-.38.46-.57.07.06.15.11.22.17-.15.19-.3.39-.45.58-.08-.06-.16-.12-.24-.18Z"/>
  <path d="M363.28,500.36c.09.04.17.08.26.11-.06.07-.12.15-.19.2-.02.01-.13-.04-.13-.06,0-.09.04-.17.06-.25Z"/>
  <path d="M316.39,501.53c-.08.06-.16.12-.25.18-.06-.12-.12-.24-.17-.35.1-.03.21-.1.29-.07.06.02.09.16.13.25Z"/>
  <path d="M337.97,200.58c.24-.23.47-.46.76-.73.14.78-.45.6-.8.7,0,0,.04.03.04.03Z"/>
  <path d="M315.3,502.24c.07.08.14.16.21.24-.12.06-.24.13-.36.19-.04-.1-.12-.21-.1-.29.02-.06.16-.1.25-.14Z"/>
  <path d="M325.61,764.06c-3.92.54-7.66.55-11.58.02.08-7.85-.27-15.58.74-23.35,1.33,1.72,10.57,21.52,10.84,23.33Z"/>
  <path d="M176.65,666.46c.4.45.81.79.76.87-.18.3-.47.56-.78.73-.08.04-.55-.33-.53-.47.04-.31.28-.6.55-1.12Z"/>
  <path d="M172.56,658.63c1.23-.45,1.57.18,1.77,1.08q-1.32.75-1.77-1.08Z"/>
  <path d="M309.67,339.09c-.86-.18-1.71-.35-2.65-.55-.12.63-.22,1.17-.33,1.75-1.44-.6-1.49-.69-1.34-2.7.77-.53,1.68,1.22,2.28-.05.72.46,1.38.88,2.04,1.31,0,.08,0,.16,0,.25Z"/>
  <path d="M303.59,340.81c1.18.99.37,1.91.14,2.83-1.09-.48-1.12-.97-.14-2.83Z"/>
  <path d="M306.5,342.22c-.04.59-.07.97-.1,1.35-.17-.02-.4.02-.49-.08-.5-.51-.12-.81.59-1.27Z"/>
</svg>